<?xml version="1.0" encoding="UTF-8" standalone="no"?>
<!-- Created with Inkscape (http://www.inkscape.org/) -->

<svg
   xmlns:dc="http://purl.org/dc/elements/1.1/"
   xmlns:cc="http://creativecommons.org/ns#"
   xmlns:rdf="http://www.w3.org/1999/02/22-rdf-syntax-ns#"
   xmlns:svg="http://www.w3.org/2000/svg"
   xmlns="http://www.w3.org/2000/svg"
   xmlns:xlink="http://www.w3.org/1999/xlink"
   xmlns:sodipodi="http://sodipodi.sourceforge.net/DTD/sodipodi-0.dtd"
   xmlns:inkscape="http://www.inkscape.org/namespaces/inkscape"
   inkscape:export-ydpi="75"
   inkscape:export-xdpi="75"
   width="96"
   height="96"
   id="svg11300"
   sodipodi:version="0.32"
   inkscape:version="0.48.5 r10040"
   sodipodi:docname="folder.svg"
   inkscape:output_extension="org.inkscape.output.svg.inkscape"
   version="1.0"
   style="display:inline;enable-background:new"
   inkscape:export-filename="/home/hooge/Raspberry/Pi-Jukebox/resources/themes/varianta/folder.png">
  <sodipodi:namedview
     stroke="#ef2929"
     fill="#f57900"
     id="base"
     pagecolor="#777777"
     bordercolor="#666666"
     borderopacity="0.25490196"
     inkscape:pageopacity="0"
     inkscape:pageshadow="2"
     inkscape:zoom="1"
     inkscape:cx="19.52537"
     inkscape:cy="22.69965"
     inkscape:current-layer="layer1"
     showgrid="false"
     inkscape:grid-bbox="true"
     inkscape:document-units="px"
     inkscape:showpageshadow="false"
     inkscape:window-width="1280"
     inkscape:window-height="734"
     inkscape:window-x="0"
     inkscape:window-y="27"
     width="400px"
     height="300px"
     inkscape:snap-nodes="true"
     inkscape:snap-bbox="true"
     gridtolerance="10000"
     inkscape:object-nodes="true"
     inkscape:snap-grids="true"
     showguides="true"
     inkscape:guide-bbox="true"
     inkscape:window-maximized="1"
     inkscape:bbox-nodes="true"
     inkscape:bbox-paths="true"
     inkscape:snap-bbox-edge-midpoints="true"
     inkscape:snap-bbox-midpoints="true"
     fit-margin-top="0"
     fit-margin-left="0"
     fit-margin-right="0"
     fit-margin-bottom="0">
    <inkscape:grid
       spacingy="1px"
       spacingx="1px"
       id="grid5883"
       type="xygrid"
       enabled="true"
       visible="true"
       empspacing="4"
       snapvisiblegridlinesonly="true"
       dotted="false"
       color="#000000"
       opacity="0.1254902"
       empcolor="#203ef3"
       empopacity="0.36470588"
       originx="-288px"
       originy="-176px" />
    <inkscape:grid
       type="xygrid"
       id="grid11592"
       empspacing="8"
       visible="true"
       enabled="false"
       spacingx="0.5px"
       spacingy="0.5px"
       color="#ff0000"
       opacity="0.1254902"
       empcolor="#ff0000"
       empopacity="0.25098039"
       snapvisiblegridlinesonly="true"
       dotted="true"
       originx="-288px"
       originy="-176px" />
  </sodipodi:namedview>
  <defs
     id="defs3">
    <linearGradient
       inkscape:collect="always"
       xlink:href="#outerBackgroundGradient-5"
       id="linearGradient4254"
       x1="35"
       y1="156"
       x2="253"
       y2="156"
       gradientUnits="userSpaceOnUse"
       gradientTransform="matrix(0,-1,1,0,-12,300)" />
    <linearGradient
       inkscape:collect="always"
       xlink:href="#outerBackgroundGradient-5"
       id="linearGradient4256"
       x1="417"
       y1="148"
       x2="431"
       y2="148"
       gradientUnits="userSpaceOnUse"
       gradientTransform="matrix(0,-1,1,0,276,572)" />
    <linearGradient
       inkscape:collect="always"
       xlink:href="#outerBackgroundGradient-5"
       id="linearGradient4258"
       x1="418"
       y1="112"
       x2="438"
       y2="112"
       gradientUnits="userSpaceOnUse"
       gradientTransform="matrix(0,-1,1,0,316,540)" />
    <linearGradient
       inkscape:collect="always"
       xlink:href="#outerBackgroundGradient-5"
       id="linearGradient4260"
       x1="418"
       y1="68"
       x2="446"
       y2="68"
       gradientUnits="userSpaceOnUse"
       gradientTransform="matrix(0,-1,1,0,364,500)" />
    <linearGradient
       inkscape:collect="always"
       xlink:href="#outerBackgroundGradient-5"
       id="linearGradient3998"
       gradientUnits="userSpaceOnUse"
       gradientTransform="matrix(0,-1,1,0,68,556)"
       x1="292"
       y1="244"
       x2="332"
       y2="244" />
    <linearGradient
       inkscape:collect="always"
       xlink:href="#outerBackgroundGradient-5"
       id="linearGradient4000"
       gradientUnits="userSpaceOnUse"
       gradientTransform="matrix(0,-1,1,0,260,412)"
       x1="293"
       y1="76"
       x2="379"
       y2="76" />
    <linearGradient
       inkscape:collect="always"
       xlink:href="#outerBackgroundGradient-5"
       id="linearGradient4002"
       gradientUnits="userSpaceOnUse"
       gradientTransform="matrix(0,-1,1,0,148,492)"
       x1="291"
       y1="172"
       x2="349"
       y2="172" />
    <linearGradient
       inkscape:collect="always"
       xlink:href="#linearGradient4100"
       id="linearGradient4898"
       gradientUnits="userSpaceOnUse"
       x1="328"
       y1="235"
       x2="328"
       y2="277" />
    <linearGradient
       id="linearGradient4100">
      <stop
         id="stop4102"
         offset="0"
         style="stop-color:#aaaaaa;stop-opacity:1;" />
      <stop
         id="stop4104"
         offset="1"
         style="stop-color:#767676;stop-opacity:1;" />
    </linearGradient>
    <linearGradient
       inkscape:collect="always"
       xlink:href="#linearGradient4084"
       id="linearGradient4900"
       gradientUnits="userSpaceOnUse"
       x1="324"
       y1="231"
       x2="324"
       y2="273" />
    <linearGradient
       id="linearGradient4084">
      <stop
         style="stop-color:#cd5fc2;stop-opacity:1;"
         offset="0"
         id="stop4086" />
      <stop
         style="stop-color:#9a4993;stop-opacity:1;"
         offset="1"
         id="stop4088" />
    </linearGradient>
    <linearGradient
       inkscape:collect="always"
       xlink:href="#outerBackgroundGradient-7"
       id="linearGradient4902"
       gradientUnits="userSpaceOnUse"
       x1="328"
       y1="273"
       x2="328"
       y2="231" />
    <linearGradient
       id="outerBackgroundGradient-7">
      <stop
         style="stop-color:#dddddd;stop-opacity:1;"
         offset="0"
         id="stop3864-8-6-3" />
      <stop
         style="stop-color:#f2f2f2;stop-opacity:1;"
         offset="1"
         id="stop3866-9-1-2" />
    </linearGradient>
    <linearGradient
       inkscape:collect="always"
       xlink:href="#outerBackgroundGradient-7"
       id="linearGradient4904"
       gradientUnits="userSpaceOnUse"
       x1="336"
       y1="273"
       x2="336"
       y2="231" />
    <linearGradient
       inkscape:collect="always"
       xlink:href="#linearGradient4100"
       id="linearGradient4906"
       gradientUnits="userSpaceOnUse"
       gradientTransform="matrix(5.8333298,0,0,5.8333298,-1763.3321,-1334.3324)"
       x1="328"
       y1="235"
       x2="328"
       y2="277" />
    <linearGradient
       inkscape:collect="always"
       xlink:href="#linearGradient4084"
       id="linearGradient4908"
       gradientUnits="userSpaceOnUse"
       gradientTransform="matrix(5.8333298,0,0,5.8333298,-1763.3321,-1310.999)"
       x1="324"
       y1="231"
       x2="324"
       y2="273" />
    <linearGradient
       inkscape:collect="always"
       xlink:href="#outerBackgroundGradient-7"
       id="linearGradient4910"
       gradientUnits="userSpaceOnUse"
       gradientTransform="matrix(5.8333298,0,0,5.8333298,-1763.3321,-1310.999)"
       x1="336"
       y1="273"
       x2="336"
       y2="231" />
    <linearGradient
       inkscape:collect="always"
       xlink:href="#outerBackgroundGradient-7"
       id="linearGradient4912"
       gradientUnits="userSpaceOnUse"
       gradientTransform="matrix(5.8333298,0,0,5.8333298,-1763.3321,-1310.999)"
       x1="336"
       y1="273"
       x2="336"
       y2="231" />
    <linearGradient
       inkscape:collect="always"
       xlink:href="#linearGradient4100"
       id="linearGradient4914"
       gradientUnits="userSpaceOnUse"
       gradientTransform="matrix(1.4999978,0,0,1.4999978,-171.99927,-214.49947)"
       x1="328"
       y1="235"
       x2="328"
       y2="277" />
    <linearGradient
       inkscape:collect="always"
       xlink:href="#linearGradient4084"
       id="linearGradient4916"
       gradientUnits="userSpaceOnUse"
       gradientTransform="matrix(1.4999978,0,0,1.4999978,-171.99927,-208.49948)"
       x1="324"
       y1="231"
       x2="324"
       y2="273" />
    <linearGradient
       inkscape:collect="always"
       xlink:href="#outerBackgroundGradient-7"
       id="linearGradient4918"
       gradientUnits="userSpaceOnUse"
       gradientTransform="matrix(1.4999978,0,0,1.4999978,-171.99927,-208.49948)"
       x1="336"
       y1="273"
       x2="336"
       y2="231" />
    <linearGradient
       inkscape:collect="always"
       xlink:href="#outerBackgroundGradient-7"
       id="linearGradient4920"
       gradientUnits="userSpaceOnUse"
       gradientTransform="matrix(1.4999978,0,0,1.4999978,-171.99927,-208.49948)"
       x1="336"
       y1="273"
       x2="336"
       y2="231" />
    <linearGradient
       inkscape:collect="always"
       xlink:href="#linearGradient4100"
       id="linearGradient4922"
       gradientUnits="userSpaceOnUse"
       gradientTransform="matrix(2.25,0,0,2.25,-401,-499)"
       x1="328"
       y1="235"
       x2="328"
       y2="277" />
    <linearGradient
       inkscape:collect="always"
       xlink:href="#linearGradient4084"
       id="linearGradient4924"
       gradientUnits="userSpaceOnUse"
       gradientTransform="matrix(2.25,0,0,2.25,-401,-490)"
       x1="324"
       y1="231"
       x2="324"
       y2="273" />
    <linearGradient
       inkscape:collect="always"
       xlink:href="#outerBackgroundGradient-7"
       id="linearGradient4926"
       gradientUnits="userSpaceOnUse"
       gradientTransform="matrix(2.25,0,0,2.25,-401,-490)"
       x1="328"
       y1="273"
       x2="328"
       y2="231" />
    <linearGradient
       inkscape:collect="always"
       xlink:href="#outerBackgroundGradient-7"
       id="linearGradient4928"
       gradientUnits="userSpaceOnUse"
       gradientTransform="matrix(2.25,0,0,2.25,-401,-490)"
       x1="336"
       y1="273"
       x2="336"
       y2="231" />
    <linearGradient
       inkscape:collect="always"
       xlink:href="#linearGradient4100"
       id="linearGradient4930"
       gradientUnits="userSpaceOnUse"
       gradientTransform="matrix(0.91666667,0,0,0.91666667,132.33333,-167.66666)"
       x1="330.18182"
       y1="240.72728"
       x2="330.18182"
       y2="272.36365" />
    <linearGradient
       inkscape:collect="always"
       xlink:href="#linearGradient4084"
       id="linearGradient4932"
       gradientUnits="userSpaceOnUse"
       gradientTransform="matrix(0.91666667,0,0,0.91666667,132.33333,-161.99999)"
       x1="325.81818"
       y1="234.54546"
       x2="325.81818"
       y2="267.27274" />
    <linearGradient
       inkscape:collect="always"
       xlink:href="#outerBackgroundGradient-7"
       id="linearGradient4934"
       gradientUnits="userSpaceOnUse"
       gradientTransform="matrix(0.91666667,0,0,0.91666667,132.33333,-163.99999)"
       x1="328"
       y1="269.45456"
       x2="328"
       y2="236.72726" />
    <linearGradient
       inkscape:collect="always"
       xlink:href="#outerBackgroundGradient-7"
       id="linearGradient4936"
       gradientUnits="userSpaceOnUse"
       gradientTransform="matrix(0.91666667,0,0,0.91666667,132.33333,-161.99999)"
       x1="334.54547"
       y1="267.27274"
       x2="334.54547"
       y2="234.54546" />
    <linearGradient
       inkscape:collect="always"
       xlink:href="#linearGradient4100"
       id="linearGradient4938"
       gradientUnits="userSpaceOnUse"
       gradientTransform="matrix(0.49999996,0,0,0.49999996,260.00002,19.727289)"
       x1="328"
       y1="240.54546"
       x2="328"
       y2="272.54544" />
    <linearGradient
       inkscape:collect="always"
       xlink:href="#linearGradient4084"
       id="linearGradient4940"
       gradientUnits="userSpaceOnUse"
       gradientTransform="matrix(0.49999996,0,0,0.49999996,260.00002,22.8182)"
       x1="324"
       y1="234.36363"
       x2="324"
       y2="266.36365" />
    <linearGradient
       inkscape:collect="always"
       xlink:href="#outerBackgroundGradient-7"
       id="linearGradient4942"
       gradientUnits="userSpaceOnUse"
       gradientTransform="matrix(0.49999996,0,0,0.49999996,260.00002,21.727291)"
       x1="328"
       y1="268.54544"
       x2="328"
       y2="236.54546" />
    <linearGradient
       inkscape:collect="always"
       xlink:href="#outerBackgroundGradient-7"
       id="linearGradient4944"
       gradientUnits="userSpaceOnUse"
       gradientTransform="matrix(0.49999996,0,0,0.49999996,260.00002,22.8182)"
       x1="336"
       y1="266.36365"
       x2="336"
       y2="234.36363" />
    <linearGradient
       inkscape:collect="always"
       xlink:href="#linearGradient4100"
       id="linearGradient4946"
       gradientUnits="userSpaceOnUse"
       gradientTransform="matrix(0.69999994,0,0,0.69999994,198.40003,-68.3818)"
       x1="328"
       y1="240.54546"
       x2="328"
       y2="271.97403" />
    <linearGradient
       inkscape:collect="always"
       xlink:href="#linearGradient4084"
       id="linearGradient4948"
       gradientUnits="userSpaceOnUse"
       gradientTransform="matrix(0.69999994,0,0,0.69999994,198.40003,-63.05452)"
       x1="325.14285"
       y1="234.36363"
       x2="325.14285"
       y2="265.79221" />
    <linearGradient
       inkscape:collect="always"
       xlink:href="#outerBackgroundGradient-7"
       id="linearGradient4950"
       gradientUnits="userSpaceOnUse"
       gradientTransform="matrix(0.69999994,0,0,0.69999994,198.40003,-65.5818)"
       x1="328"
       y1="267.97403"
       x2="328"
       y2="236.54546" />
    <linearGradient
       inkscape:collect="always"
       xlink:href="#outerBackgroundGradient-7"
       id="linearGradient4952"
       gradientUnits="userSpaceOnUse"
       gradientTransform="matrix(0.69999994,0,0,0.69999994,198.40003,-63.05452)"
       x1="336.57141"
       y1="265.79221"
       x2="336.57141"
       y2="234.36363" />
    <linearGradient
       inkscape:collect="always"
       xlink:href="#linearGradient3939"
       id="linearGradient4385"
       gradientUnits="userSpaceOnUse"
       gradientTransform="matrix(-10.5,0,0,10.5,4758.7167,-10907.842)"
       x1="444"
       y1="1044"
       x2="444"
       y2="1060" />
    <linearGradient
       id="linearGradient3939">
      <stop
         id="stop3941"
         offset="0"
         style="stop-color:#f8e6fe;stop-opacity:1;" />
      <stop
         id="stop3943"
         offset="1"
         style="stop-color:#d1addd;stop-opacity:1;" />
    </linearGradient>
    <linearGradient
       inkscape:collect="always"
       xlink:href="#linearGradient3945"
       id="linearGradient4383"
       gradientUnits="userSpaceOnUse"
       gradientTransform="matrix(10.5,0,0,10.5,-4478.9959,-10889.005)"
       x1="441.7381"
       y1="1047.1006"
       x2="441.7381"
       y2="1060.8148" />
    <linearGradient
       id="linearGradient3945">
      <stop
         style="stop-color:#f8e6fe;stop-opacity:1;"
         offset="0"
         id="stop3947" />
      <stop
         style="stop-color:#edddf2;stop-opacity:1;"
         offset="1"
         id="stop3949" />
    </linearGradient>
    <linearGradient
       inkscape:collect="always"
       xlink:href="#linearGradient3939"
       id="linearGradient4098"
       gradientUnits="userSpaceOnUse"
       gradientTransform="matrix(-1.96875,0,0,1.96875,1176.8216,-1831.0093)"
       x1="444"
       y1="1044"
       x2="444"
       y2="1060" />
    <linearGradient
       inkscape:collect="always"
       xlink:href="#linearGradient3945"
       id="linearGradient4094"
       gradientUnits="userSpaceOnUse"
       gradientTransform="matrix(1.96875,0,0,1.96875,-555.24951,-1827.6262)"
       x1="441.7381"
       y1="1047.1006"
       x2="441.7381"
       y2="1060.8148" />
    <linearGradient
       inkscape:collect="always"
       xlink:href="#linearGradient3939"
       id="linearGradient4108"
       gradientUnits="userSpaceOnUse"
       gradientTransform="matrix(-3.9374992,0,0,3.9374992,2065.6432,-4074.0175)"
       x1="444"
       y1="1044"
       x2="444"
       y2="1060" />
    <linearGradient
       inkscape:collect="always"
       xlink:href="#linearGradient3945"
       id="linearGradient4105"
       gradientUnits="userSpaceOnUse"
       gradientTransform="matrix(3.9374992,0,0,3.9374992,-1398.4984,-4067.2508)"
       x1="441.7381"
       y1="1047.1006"
       x2="441.7381"
       y2="1060.8148" />
    <linearGradient
       inkscape:collect="always"
       xlink:href="#linearGradient3939"
       id="linearGradient4115"
       gradientUnits="userSpaceOnUse"
       gradientTransform="matrix(-0.98437482,0,0,0.98437482,860.41054,-925.50465)"
       x1="444"
       y1="1044"
       x2="444"
       y2="1060" />
    <linearGradient
       inkscape:collect="always"
       xlink:href="#linearGradient3945"
       id="linearGradient4111"
       gradientUnits="userSpaceOnUse"
       gradientTransform="matrix(0.98437482,0,0,0.98437482,-5.6248501,-923.81295)"
       x1="441.7381"
       y1="1047.1006"
       x2="441.7381"
       y2="1060.8148" />
    <linearGradient
       inkscape:collect="always"
       xlink:href="#linearGradient3939"
       id="linearGradient4121"
       gradientUnits="userSpaceOnUse"
       gradientTransform="matrix(-1.3125,0,0,1.3125,1008.2194,-1315.0898)"
       x1="444"
       y1="1044"
       x2="444"
       y2="1060" />
    <linearGradient
       inkscape:collect="always"
       xlink:href="#linearGradient3945"
       id="linearGradient4118"
       gradientUnits="userSpaceOnUse"
       gradientTransform="matrix(1.3125,0,0,1.3125,-146.49458,-1312.751)"
       x1="441.7381"
       y1="1047.1006"
       x2="441.7381"
       y2="1060.8148" />
    <linearGradient
       inkscape:collect="always"
       xlink:href="#linearGradient3939"
       id="linearGradient4081"
       gradientUnits="userSpaceOnUse"
       gradientTransform="matrix(-0.72497795,0,0,0.72497795,742.28283,-615.96924)"
       x1="444"
       y1="1044"
       x2="444"
       y2="1060" />
    <linearGradient
       inkscape:collect="always"
       xlink:href="#linearGradient3945"
       id="linearGradient4078"
       gradientUnits="userSpaceOnUse"
       gradientTransform="matrix(0.72497795,0,0,0.72497795,104.46017,-614.67739)"
       x1="441.7381"
       y1="1047.1006"
       x2="441.7381"
       y2="1060.8148" />
    <linearGradient
       inkscape:collect="always"
       xlink:href="#linearGradient3939"
       id="linearGradient3202"
       gradientUnits="userSpaceOnUse"
       gradientTransform="matrix(-2.625,0,0,2.625,1474.4393,-2594.179)"
       x1="444"
       y1="1044"
       x2="444"
       y2="1060" />
    <linearGradient
       inkscape:collect="always"
       xlink:href="#linearGradient3945"
       id="linearGradient3198"
       gradientUnits="userSpaceOnUse"
       gradientTransform="matrix(2.625,0,0,2.625,-834.9888,-2589.5014)"
       x1="441.7381"
       y1="1047.1006"
       x2="441.7381"
       y2="1060.8148" />
    <linearGradient
       id="outerBackgroundGradient-5">
      <stop
         style="stop-color:#846389;stop-opacity:1;"
         offset="0"
         id="stop3864-8-6-3-0" />
      <stop
         style="stop-color:#a38ea6;stop-opacity:1;"
         offset="1"
         id="stop3866-9-1-7" />
    </linearGradient>
    <linearGradient
       y2="156"
       x2="253"
       y1="156"
       x1="35"
       gradientTransform="matrix(0,-1,1,0,342,-14)"
       gradientUnits="userSpaceOnUse"
       id="linearGradient7075"
       xlink:href="#outerBackgroundGradient-5"
       inkscape:collect="always" />
  </defs>
  <metadata
     id="metadata4">
    <rdf:RDF>
      <cc:Work
         rdf:about="">
        <dc:format>image/svg+xml</dc:format>
        <dc:type
           rdf:resource="http://purl.org/dc/dcmitype/StillImage" />
        <dc:creator>
          <cc:Agent>
            <dc:title>Sam Hewitt</dc:title>
          </cc:Agent>
        </dc:creator>
        <dc:source />
        <cc:license
           rdf:resource="" />
        <dc:title></dc:title>
        <dc:subject>
          <rdf:Bag />
        </dc:subject>
        <dc:date />
        <dc:rights>
          <cc:Agent>
            <dc:title />
          </cc:Agent>
        </dc:rights>
        <dc:publisher>
          <cc:Agent>
            <dc:title />
          </cc:Agent>
        </dc:publisher>
        <dc:identifier />
        <dc:relation />
        <dc:language />
        <dc:coverage />
        <dc:description />
        <dc:contributor>
          <cc:Agent>
            <dc:title />
          </cc:Agent>
        </dc:contributor>
      </cc:Work>
      <cc:Work
         rdf:about="">
        <dc:format>image/svg+xml</dc:format>
        <dc:type
           rdf:resource="http://purl.org/dc/dcmitype/StillImage" />
      </cc:Work>
    </rdf:RDF>
  </metadata>
  <g
     style="display:inline"
     inkscape:groupmode="layer"
     inkscape:label="Icon"
     id="layer1"
     transform="translate(-288,-28)">
    <g
       style="display:none"
       inkscape:label="Baseplate"
       id="layer7"
       inkscape:groupmode="layer"
       sodipodi:insensitive="true">
      <rect
         style="fill:#eeeeec;fill-opacity:1;fill-rule:nonzero;stroke:none;stroke-width:2;marker:none;visibility:visible;display:inline;overflow:visible;enable-background:accumulate"
         id="rect96x96"
         width="96"
         height="96"
         x="288"
         y="28"
         inkscape:label="96x96" />
    </g>
    <g
       inkscape:groupmode="layer"
       id="layer4"
       inkscape:label="Shadow"
       style="display:inline">
      <rect
         style="opacity:0.15;color:#bebebe;fill:#000000;fill-opacity:1;fill-rule:nonzero;stroke:none;stroke-width:0;marker:none;visibility:visible;display:inline;overflow:visible;enable-background:accumulate"
         id="rect4124"
         width="88"
         height="88"
         x="292"
         y="33"
         ry="18" />
    </g>
    <g
       inkscape:groupmode="layer"
       id="layer2"
       inkscape:label="Background"
       style="display:inline">
      <path
         style="color:#bebebe;fill:url(#linearGradient4000);fill-opacity:1;fill-rule:nonzero;stroke:none;stroke-width:2;marker:none;visibility:visible;display:inline;overflow:visible;enable-background:accumulate"
         d="m 310,32.5 c -9.70255,0 -17.5,7.797452 -17.5,17.5 l 0,52 c 0,9.70255 7.79745,17.5 17.5,17.5 l 52,0 c 9.70255,0 17.5,-7.79745 17.5,-17.5 l 0,-52 c 0,-9.702548 -7.79745,-17.5 -17.5,-17.5 l -52,0 z"
         id="path4210"
         inkscape:connector-curvature="0" />
    </g>
    <g
       inkscape:groupmode="layer"
       id="layer6"
       inkscape:label="Symbols"
       style="display:inline">
      <path
         style="font-size:medium;font-style:normal;font-variant:normal;font-weight:normal;font-stretch:normal;text-indent:0;text-align:start;text-decoration:none;line-height:normal;letter-spacing:normal;word-spacing:normal;text-transform:none;direction:ltr;block-progression:tb;writing-mode:lr-tb;text-anchor:start;baseline-shift:baseline;opacity:0.2;color:#000000;fill:#000000;fill-opacity:1;stroke:none;stroke-width:2;marker:none;visibility:visible;display:inline;overflow:visible;enable-background:accumulate;font-family:Sans;-inkscape-font-specification:Sans"
         d="m 307.99961,50.500005 0,44.999991 c 0,7.499994 7.5,7.499994 7.5,7.499994 l 40.99999,0 c 7.5,0 7.5,-7.499994 7.5,-7.499994 l 0,-33.883884 c 0,0 0,-1.499999 3e-5,-1.499999 0,0 0,-3 -3,-3 l -14.84383,0.07455 c -4.74996,0.02385 -7.26563,-2.484299 -9.51563,-4.734299 -2.25,-2.249999 -4.23441,-3.364829 -8.48437,-3.381809 l -18.65619,-0.07455 c 0,0 -1.5,0 -1.5,1.5 z"
         id="path4283"
         inkscape:connector-curvature="0"
         sodipodi:nodetypes="scccccccssscs" />
      <path
         sodipodi:nodetypes="ccssccssccscccc"
         inkscape:connector-curvature="0"
         id="path4285"
         d="m 305.74799,68.116156 c 0,0 -0.55047,4.35e-4 -1.125,0.28125 -0.23185,0.11595 -0.56667,0.30549 -0.79687,0.65625 -0.23021,0.35076 -0.38847,0.787199 -0.32813,1.312499 l 3.00165,26.13385 c 0,0 -0.003,1.870965 0.9375,3.749995 0.92633,1.85277 2.82936,3.75 6.5625,3.75 l 43.99999,0 c 3.73314,0 5.63617,-1.89723 6.5625,-3.75 0.93976,-1.87903 0.9375,-3.749995 0.9375,-3.749995 l 3.00169,-26.13385 c 0.0603,-0.525285 -0.0979,-0.961739 -0.32812,-1.312499 -0.23021,-0.35076 -0.56502,-0.5403 -0.79688,-0.65625 -0.58059,-0.290595 -1.125,-0.28125 -1.125,-0.28125 -26.25334,0 -40.25333,0 -60.50333,0 z"
         style="font-size:medium;font-style:normal;font-variant:normal;font-weight:normal;font-stretch:normal;text-indent:0;text-align:start;text-decoration:none;line-height:normal;letter-spacing:normal;word-spacing:normal;text-transform:none;direction:ltr;block-progression:tb;writing-mode:lr-tb;text-anchor:start;baseline-shift:baseline;opacity:0.2;color:#000000;fill:#000000;fill-opacity:1;stroke:none;stroke-width:2;marker:none;visibility:visible;display:inline;overflow:visible;enable-background:accumulate;font-family:Sans;-inkscape-font-specification:Sans" />
      <path
         style="font-size:medium;font-style:normal;font-variant:normal;font-weight:normal;font-stretch:normal;text-indent:0;text-align:start;text-decoration:none;line-height:normal;letter-spacing:normal;word-spacing:normal;text-transform:none;direction:ltr;block-progression:tb;writing-mode:lr-tb;text-anchor:start;baseline-shift:baseline;opacity:0.2;color:#000000;fill:#000000;fill-opacity:1;stroke:none;stroke-width:2;marker:none;visibility:visible;display:inline;overflow:visible;enable-background:accumulate;font-family:Sans;-inkscape-font-specification:Sans"
         d="m 305.74799,69.116156 c 0,0 -0.55047,4.35e-4 -1.125,0.28125 -0.23185,0.11595 -0.56667,0.30549 -0.79687,0.65625 -0.23021,0.35076 -0.38847,0.787199 -0.32813,1.312499 l 3.00165,26.13385 c 0,0 -0.003,1.870965 0.9375,3.749995 0.92633,1.85277 2.82936,3.75 6.5625,3.75 l 43.99999,0 c 3.73314,0 5.63617,-1.89723 6.5625,-3.75 0.93976,-1.87903 0.9375,-3.749995 0.9375,-3.749995 l 3.00169,-26.13385 c 0.0603,-0.525285 -0.0979,-0.961739 -0.32812,-1.312499 -0.23021,-0.35076 -0.56502,-0.5403 -0.79688,-0.65625 -0.58059,-0.290595 -1.125,-0.28125 -1.125,-0.28125 -26.25334,0 -40.25333,0 -60.50333,0 z"
         id="path4287"
         inkscape:connector-curvature="0"
         sodipodi:nodetypes="ccssccssccscccc" />
      <path
         sodipodi:nodetypes="scccccccssscs"
         inkscape:connector-curvature="0"
         id="path4035"
         d="m 307.99961,49.4997 0,44.999991 c 0,7.499999 7.5,7.499999 7.5,7.499999 l 40.99999,0 c 7.5,0 7.5,-7.499999 7.5,-7.499999 l 0,-33.883884 c 0,0 0,-1.499999 3e-5,-1.499999 0,0 0,-3 -3,-3 l -14.84383,0.07455 c -4.74996,0.02385 -7.26563,-2.484299 -9.51563,-4.734299 -2.25,-2.249999 -4.23441,-3.364829 -8.48437,-3.381809 L 309.49961,47.9997 c 0,0 -1.5,0 -1.5,1.5 z"
         style="font-size:medium;font-style:normal;font-variant:normal;font-weight:normal;font-stretch:normal;text-indent:0;text-align:start;text-decoration:none;line-height:normal;letter-spacing:normal;word-spacing:normal;text-transform:none;direction:ltr;block-progression:tb;writing-mode:lr-tb;text-anchor:start;baseline-shift:baseline;color:#000000;fill:url(#linearGradient4108);fill-opacity:1;stroke:none;stroke-width:2;marker:none;visibility:visible;display:inline;overflow:visible;enable-background:accumulate;font-family:Sans;-inkscape-font-specification:Sans" />
      <path
         style="font-size:medium;font-style:normal;font-variant:normal;font-weight:normal;font-stretch:normal;text-indent:0;text-align:start;text-decoration:none;line-height:normal;letter-spacing:normal;word-spacing:normal;text-transform:none;direction:ltr;block-progression:tb;writing-mode:lr-tb;text-anchor:start;baseline-shift:baseline;opacity:0.1;color:#000000;fill:#000000;fill-opacity:1;stroke:none;stroke-width:2;marker:none;visibility:visible;display:inline;overflow:visible;enable-background:accumulate;font-family:Sans;-inkscape-font-specification:Sans"
         d="m 305.74799,67.115851 c 0,0 -0.55047,4.35e-4 -1.125,0.28125 -0.23185,0.11595 -0.56667,0.30549 -0.79687,0.65625 -0.23021,0.35076 -0.38847,0.787199 -0.32813,1.312499 l 3.00165,26.13385 c 0,0 -0.003,1.870965 0.9375,3.750001 0.92633,1.852769 2.82936,3.749999 6.5625,3.749999 l 43.99999,0 c 3.73314,0 5.63617,-1.89723 6.5625,-3.749999 0.93976,-1.879036 0.9375,-3.750001 0.9375,-3.750001 l 3.00169,-26.13385 c 0.0603,-0.525285 -0.0979,-0.961739 -0.32812,-1.312499 -0.23021,-0.35076 -0.56502,-0.5403 -0.79688,-0.65625 -0.58059,-0.290595 -1.125,-0.28125 -1.125,-0.28125 -26.25334,0 -40.25333,0 -60.50333,0 z"
         id="path3213"
         inkscape:connector-curvature="0"
         sodipodi:nodetypes="ccssccssccscccc" />
      <path
         sodipodi:nodetypes="ccssccssccscccc"
         inkscape:connector-curvature="0"
         id="path4037"
         d="m 305.74799,68.115851 c 0,0 -0.55047,4.35e-4 -1.125,0.28125 -0.23185,0.11595 -0.56667,0.30549 -0.79687,0.65625 -0.23021,0.35076 -0.38847,0.787199 -0.32813,1.312499 l 3.00165,26.13385 c 0,0 -0.003,1.870965 0.9375,3.75 0.92633,1.85277 2.82936,3.75 6.5625,3.75 l 43.99999,0 c 3.73314,0 5.63617,-1.89723 6.5625,-3.75 0.93976,-1.879035 0.9375,-3.75 0.9375,-3.75 l 3.00169,-26.13385 c 0.0603,-0.525285 -0.0979,-0.961739 -0.32812,-1.312499 -0.23021,-0.35076 -0.56502,-0.5403 -0.79688,-0.65625 -0.58059,-0.290595 -1.125,-0.28125 -1.125,-0.28125 -26.25334,0 -40.25333,0 -60.50333,0 z"
         style="font-size:medium;font-style:normal;font-variant:normal;font-weight:normal;font-stretch:normal;text-indent:0;text-align:start;text-decoration:none;line-height:normal;letter-spacing:normal;word-spacing:normal;text-transform:none;direction:ltr;block-progression:tb;writing-mode:lr-tb;text-anchor:start;baseline-shift:baseline;color:#000000;fill:url(#linearGradient4105);fill-opacity:1;stroke:none;stroke-width:2;marker:none;visibility:visible;display:inline;overflow:visible;enable-background:accumulate;font-family:Sans;-inkscape-font-specification:Sans" />
      <path
         inkscape:connector-curvature="0"
         style="font-size:medium;font-style:normal;font-variant:normal;font-weight:normal;font-stretch:normal;text-indent:0;text-align:start;text-decoration:none;line-height:normal;letter-spacing:normal;word-spacing:normal;text-transform:none;direction:ltr;block-progression:tb;writing-mode:lr-tb;text-anchor:start;baseline-shift:baseline;color:#000000;fill:#ffffff;fill-opacity:1;stroke:none;stroke-width:2;marker:none;visibility:visible;display:inline;overflow:visible;enable-background:accumulate;font-family:Sans;-inkscape-font-specification:Sans"
         d="m 309.49965,47.999701 c 0,0 -1.5,0 -1.5,1.5 l 0,1 c 0,-1.5 1.5,-1.5 1.5,-1.5 l 18.65625,0.0625 c 4.24996,0.01698 6.21875,1.156251 8.46875,3.40625 2.25,2.25 4.78129,4.7426 9.53125,4.71875 l 14.84375,-0.0625 c 3,0 3,3 3,3 0,-0.444444 -2e-5,-1 0,-1 0,0 0,-3 -3,-3 l -14.84375,0.0625 c -4.74996,0.02385 -7.28125,-2.46875 -9.53125,-4.71875 -2.25,-2.249999 -4.21879,-3.38927 -8.46875,-3.40625 l -18.65625,-0.0625 z"
         id="path4131" />
      <path
         inkscape:connector-curvature="0"
         style="font-size:medium;font-style:normal;font-variant:normal;font-weight:normal;font-stretch:normal;text-indent:0;text-align:start;text-decoration:none;line-height:normal;letter-spacing:normal;word-spacing:normal;text-transform:none;direction:ltr;block-progression:tb;writing-mode:lr-tb;text-anchor:start;baseline-shift:baseline;color:#000000;fill:#ffffff;fill-opacity:1;stroke:none;stroke-width:2;marker:none;visibility:visible;display:inline;overflow:visible;enable-background:accumulate;font-family:Sans;-inkscape-font-specification:Sans"
         d="m 305.74965,68.124701 c 0,0 -0.55047,4.35e-4 -1.125,0.28125 -0.23185,0.11595 -0.5823,0.30549 -0.8125,0.65625 -0.23021,0.35076 -0.37284,0.7872 -0.3125,1.3125 l 0.0312,0.375 c 0.0573,-0.256197 0.15003,-0.487567 0.28125,-0.6875 0.2302,-0.35076 0.58065,-0.5403 0.8125,-0.65625 0.57453,-0.280815 1.125,-0.28125 1.125,-0.28125 l 60.5,0 c 0,0 0.54441,-0.0093 1.125,0.28125 0.23186,0.11595 0.58229,0.30549 0.8125,0.65625 0.13123,0.199933 0.22395,0.431302 0.28125,0.6875 l 0.0313,-0.375 c 0.0603,-0.525285 -0.0823,-0.96174 -0.3125,-1.3125 -0.23021,-0.35076 -0.58064,-0.5403 -0.8125,-0.65625 -0.58059,-0.290595 -1.125,-0.28125 -1.125,-0.28125 l -60.5,0 z"
         id="path4133" />
    </g>
    <g
       inkscape:groupmode="layer"
       id="layer5"
       inkscape:label="Highlights"
       style="display:inline">
      <path
         style="opacity:0.12999998;color:#bebebe;fill:#ffffff;fill-opacity:1;fill-rule:nonzero;stroke:none;stroke-width:0;marker:none;visibility:visible;display:inline;overflow:visible;enable-background:accumulate"
         d="m 310,33 c -9.4353,0 -17,7.564703 -17,17 l 0,1 c 0,-9.435297 7.5647,-17 17,-17 l 52,0 c 9.4353,0 17,7.564703 17,17 l 0,-1 c 0,-9.435297 -7.5647,-17 -17,-17 l -52,0 z"
         id="rect3904"
         inkscape:connector-curvature="0" />
      <path
         id="path4095"
         d="m 362,120 c 9.4353,0 17,-7.5647 17,-17 l 0,-1 c 0,9.4353 -7.5647,17 -17,17 l -52,0 c -9.4353,0 -17,-7.5647 -17,-17 l 0,1 c 0,9.4353 7.5647,17 17,17 l 52,0 z"
         style="opacity:0.12999998;color:#bebebe;fill:#000000;fill-opacity:1;fill-rule:nonzero;stroke:none;stroke-width:0;marker:none;visibility:visible;display:inline;overflow:visible;enable-background:accumulate"
         inkscape:connector-curvature="0" />
      <path
         style="opacity:0.1;color:#bebebe;fill:#ffffff;fill-opacity:1;fill-rule:nonzero;stroke:none;stroke-width:0;marker:none;visibility:visible;display:inline;overflow:visible;enable-background:accumulate"
         d="m 310,119 c -9.4353,0 -17,-7.5647 -17,-17 l 0,-1 c 0,9.4353 7.5647,17 17,17 l 52,0 c 9.4353,0 17,-7.5647 17,-17 l 0,1 c 0,9.4353 -7.5647,17 -17,17 l -52,0 z"
         id="path4298"
         inkscape:connector-curvature="0" />
    </g>
    <g
       inkscape:groupmode="layer"
       id="layer3"
       inkscape:label="Border"
       style="display:inline">
      <path
         style="opacity:0.41000001;color:#bebebe;fill:#000000;fill-opacity:1;fill-rule:nonzero;stroke:none;stroke-width:0;marker:none;visibility:visible;display:inline;overflow:visible;enable-background:accumulate"
         d="m 310,32 c -9.972,0 -18,8.028 -18,18 l 0,52 c 0,9.972 8.028,18 18,18 l 52,0 c 9.972,0 18,-8.028 18,-18 l 0,-52 c 0,-9.972 -8.028,-18 -18,-18 l -52,0 z m 0,1 52,0 c 9.4353,0 17,7.564703 17,17 l 0,52 c 0,9.4353 -7.5647,17 -17,17 l -52,0 c -9.4353,0 -17,-7.5647 -17,-17 l 0,-52 c 0,-9.435297 7.5647,-17 17,-17 z"
         id="rect4511"
         inkscape:connector-curvature="0" />
    </g>
  </g>
</svg>
