<?xml version="1.0" encoding="UTF-8" standalone="no"?>
<!-- Created with Inkscape (http://www.inkscape.org/) -->

<svg
   xmlns:dc="http://purl.org/dc/elements/1.1/"
   xmlns:cc="http://creativecommons.org/ns#"
   xmlns:rdf="http://www.w3.org/1999/02/22-rdf-syntax-ns#"
   xmlns:svg="http://www.w3.org/2000/svg"
   xmlns="http://www.w3.org/2000/svg"
   xmlns:sodipodi="http://sodipodi.sourceforge.net/DTD/sodipodi-0.dtd"
   xmlns:inkscape="http://www.inkscape.org/namespaces/inkscape"
   width="210mm"
   height="297mm"
   viewBox="0 0 744.09448819 1052.3622047"
   id="svg3337"
   version="1.1"
   inkscape:version="0.91 r13725"
   sodipodi:docname="artists.svg"
   inkscape:export-filename="D:\tmp\resources\new_icons_src\artists.png"
   inkscape:export-xdpi="5.73"
   inkscape:export-ydpi="5.73">
  <defs
     id="defs3339" />
  <sodipodi:namedview
     id="base"
     pagecolor="#ffffff"
     bordercolor="#666666"
     borderopacity="1.0"
     inkscape:pageopacity="0.0"
     inkscape:pageshadow="2"
     inkscape:zoom="0.98994949"
     inkscape:cx="263.13803"
     inkscape:cy="765.02124"
     inkscape:document-units="px"
     inkscape:current-layer="layer1"
     showgrid="false"
     inkscape:window-width="1920"
     inkscape:window-height="1001"
     inkscape:window-x="-9"
     inkscape:window-y="-9"
     inkscape:window-maximized="1" />
  <metadata
     id="metadata3342">
    <rdf:RDF>
      <cc:Work
         rdf:about="">
        <dc:format>image/svg+xml</dc:format>
        <dc:type
           rdf:resource="http://purl.org/dc/dcmitype/StillImage" />
        <dc:title></dc:title>
      </cc:Work>
    </rdf:RDF>
  </metadata>
  <g
     inkscape:label="Layer 1"
     inkscape:groupmode="layer"
     id="layer1">
    <g
       id="g4194"
       style="stroke:#feff7f;stroke-opacity:1">
      <path
         style="fill:none;stroke:#feff7f;stroke-width:24.00000191;stroke-linecap:round;stroke-linejoin:round;stroke-miterlimit:4;stroke-dasharray:none;stroke-opacity:1"
         inkscape:connector-curvature="0"
         d="m 144.02352,357.22814 c 29.87982,-19.84395 63.05666,-30.722 95.14246,-41.31041 4.6102,-1.51564 9.21477,-3.00457 13.79685,-4.55396 l 0.93919,-0.31072 c 6.77962,-2.37469 13.20635,-4.61723 18.4661,-7.51495 0.23761,-0.55395 0.57786,-1.47487 0.98419,-3.00176 -26.4155,-38.56313 -44.3642,-98.1653 -44.3642,-149.22476 0,-43.31393 13.61267,-75.401136 39.2844,-94.939997 -11.09878,-5.611254 -24.48649,-7.770834 -38.89354,-7.770834 -38.39301,0 -69.5143,15.339208 -69.5143,70.414131 0,36.56525 13.7153,81.4145 34.15961,107.45882 -0.18981,2.05835 -0.43304,4.12092 -0.80281,6.16943 -1.21898,5.59438 -3.17892,11.86222 -8.40915,14.96803 -5.86855,3.48401 -12.38666,5.69561 -18.80072,7.94236 -26.58984,8.94904 -54.09075,16.83657 -77.69148,32.50759 -12.269956,8.07734 -20.582091,22.09212 -25.166982,35.86085 -4.722676,14.28894 -6.654489,34.26506 -6.363451,45.51288 l 72.513263,0 c 4.60035,-5.62532 9.50159,-8.77752 14.72057,-12.2067 z"
         id="path3354" />
      <path
         style="fill:none;stroke:#feff7f;stroke-width:24.00000191;stroke-linecap:round;stroke-linejoin:round;stroke-miterlimit:4;stroke-dasharray:none;stroke-opacity:1"
         inkscape:connector-curvature="0"
         d="m 671.63529,321.92055 c -4.5877,-13.76873 -12.90406,-27.24642 -25.16699,-35.32517 -23.60635,-15.66961 -51.11007,-23.82568 -77.69709,-32.7691 -6.41547,-2.24675 -12.93077,-4.59333 -18.79229,-8.07875 -5.23867,-3.11142 -7.20001,-9.44113 -8.41055,-15.04114 -0.53709,-2.9638 -0.8703,-5.9754 -1.0348,-8.96732 19.27875,-26.37753 32.06893,-69.41167 32.06893,-104.7045 0,-55.086177 -31.12411,-70.435227 -69.51572,-70.435227 -14.60107,0 -28.13219,2.241127 -39.32096,8.022504 25.45522,19.561357 38.94135,51.576853 38.94135,94.715043 0,49.71253 -16.6763,106.95547 -42.03168,145.76184 0.0689,0.44007 0.13638,0.8703 0.21511,1.30053 0.66784,3.0102 1.21477,4.58208 1.55501,5.36239 5.56064,3.10018 12.21372,5.53252 19.64572,8.14623 l 11.13393,3.71038 c 32.91673,10.92866 66.95402,22.10477 97.61416,42.44644 4.95466,3.2689 9.63376,5.74342 14.019,11.36732 l 73.13751,0 c 0.29244,-11.24641 -1.64218,-31.22253 -6.36064,-45.51147 z"
         id="path3356" />
      <path
         id="path3358"
         d="m 591.5818,432.97795 c -6.12162,-18.36065 -17.20775,-36.55399 -33.55645,-47.33643 -31.4742,-20.88438 -68.1477,-31.87912 -103.59941,-43.80321 -8.55396,-2.99895 -17.2429,-6.17927 -25.05451,-10.82743 -6.9863,-4.15185 -9.5986,-12.61161 -11.21829,-20.07735 -0.71283,-3.95923 -1.15852,-7.98313 -1.37926,-11.97751 25.70407,-35.1677 42.75998,-92.55406 42.75998,-139.61351 0,-73.448232 -41.49882,-93.913632 -92.69044,-93.913632 -51.18881,0 -92.68481,20.44431 -92.68481,93.885512 0,48.74522 18.28614,108.54704 45.54662,143.28592 -0.25448,2.73744 -0.57645,5.48612 -1.06854,8.21372 -1.62953,7.45589 -4.24324,15.81583 -11.21266,19.95643 -7.82848,4.65097 -16.51883,7.59087 -25.07138,10.58982 -35.45171,11.93534 -72.1224,22.44642 -103.58816,43.34205 -16.35995,10.77119 -27.44467,29.91497 -33.55645,48.27562 -6.29878,19.0524 -8.87312,42.87386 -8.48508,61.15156 l 231.66563,0 231.66703,0 c 0.39649,-18.2777 -2.18207,-42.10057 -8.47382,-61.15156 z"
         inkscape:connector-curvature="0"
         style="fill:none;stroke:#feff7f;stroke-width:24;stroke-linecap:round;stroke-linejoin:round;stroke-miterlimit:4;stroke-dasharray:none;stroke-opacity:1" />
    </g>
  </g>
</svg>
