<?xml version="1.0" encoding="UTF-8" standalone="no"?>
<!-- Generator: Adobe Illustrator 18.1.1, SVG Export Plug-In . SVG Version: 6.00 Build 0)  -->

<svg
   xmlns:dc="http://purl.org/dc/elements/1.1/"
   xmlns:cc="http://creativecommons.org/ns#"
   xmlns:rdf="http://www.w3.org/1999/02/22-rdf-syntax-ns#"
   xmlns:svg="http://www.w3.org/2000/svg"
   xmlns="http://www.w3.org/2000/svg"
   xmlns:sodipodi="http://sodipodi.sourceforge.net/DTD/sodipodi-0.dtd"
   xmlns:inkscape="http://www.inkscape.org/namespaces/inkscape"
   version="1.1"
   id="Paus"
   x="0px"
   y="0px"
   viewBox="0 0 20 20"
   enable-background="new 0 0 20 20"
   xml:space="preserve"
   inkscape:version="0.91 r13725"
   sodipodi:docname="controller-pause.svg"><metadata
     id="metadata4162"><rdf:RDF><cc:Work
         rdf:about=""><dc:format>image/svg+xml</dc:format><dc:type
           rdf:resource="http://purl.org/dc/dcmitype/StillImage" /><dc:title></dc:title></cc:Work></rdf:RDF></metadata><defs
     id="defs4160" /><sodipodi:namedview
     pagecolor="#ffffff"
     bordercolor="#666666"
     borderopacity="1"
     objecttolerance="10"
     gridtolerance="10"
     guidetolerance="10"
     inkscape:pageopacity="0"
     inkscape:pageshadow="2"
     inkscape:window-width="1920"
     inkscape:window-height="1001"
     id="namedview4158"
     showgrid="false"
     inkscape:zoom="40.4"
     inkscape:cx="10"
     inkscape:cy="10"
     inkscape:window-x="-9"
     inkscape:window-y="-9"
     inkscape:window-maximized="1"
     inkscape:current-layer="Paus" /><path
     d="M15,3h-2c-0.553,0-1,0.048-1,0.6V16.4c0,0.552,0.447,0.6,1,0.6h2c0.553,0,1-0.048,1-0.6V3.6C16,3.048,15.553,3,15,3z M7,3H5  C4.447,3,4,3.048,4,3.6V16.4C4,16.952,4.447,17,5,17h2c0.553,0,1-0.048,1-0.6V3.6C8,3.048,7.553,3,7,3z"
     id="path4156"
     style="stroke:#7fc9ff;stroke-opacity:1;fill:none;stroke-linejoin:round;stroke-linecap:round"
     inkscape:export-filename="D:\tmp\resources\new_icons\new-pause-1.png"
     inkscape:export-xdpi="179.99866"
     inkscape:export-ydpi="179.99866" /></svg>