<?xml version="1.0" encoding="UTF-8" standalone="no"?>
<!-- Generator: Adobe Illustrator 18.1.1, SVG Export Plug-In . SVG Version: 6.00 Build 0)  -->

<svg
   xmlns:dc="http://purl.org/dc/elements/1.1/"
   xmlns:cc="http://creativecommons.org/ns#"
   xmlns:rdf="http://www.w3.org/1999/02/22-rdf-syntax-ns#"
   xmlns:svg="http://www.w3.org/2000/svg"
   xmlns="http://www.w3.org/2000/svg"
   xmlns:sodipodi="http://sodipodi.sourceforge.net/DTD/sodipodi-0.dtd"
   xmlns:inkscape="http://www.inkscape.org/namespaces/inkscape"
   version="1.1"
   id="Play"
   x="0px"
   y="0px"
   viewBox="0 0 20 20"
   enable-background="new 0 0 20 20"
   xml:space="preserve"
   inkscape:version="0.91 r13725"
   sodipodi:docname="controller-play.svg"><metadata
     id="metadata3343"><rdf:RDF><cc:Work
         rdf:about=""><dc:format>image/svg+xml</dc:format><dc:type
           rdf:resource="http://purl.org/dc/dcmitype/StillImage" /><dc:title></dc:title></cc:Work></rdf:RDF></metadata><defs
     id="defs3341" /><sodipodi:namedview
     pagecolor="#ffffff"
     bordercolor="#666666"
     borderopacity="1"
     objecttolerance="10"
     gridtolerance="10"
     guidetolerance="10"
     inkscape:pageopacity="0"
     inkscape:pageshadow="2"
     inkscape:window-width="1920"
     inkscape:window-height="1001"
     id="namedview3339"
     showgrid="false"
     inkscape:zoom="40.4"
     inkscape:cx="5.8663366"
     inkscape:cy="10"
     inkscape:window-x="-9"
     inkscape:window-y="-9"
     inkscape:window-maximized="1"
     inkscape:current-layer="Play" /><path
     d="M15,10.001c0,0.299-0.305,0.514-0.305,0.514l-8.561,5.303C5.51,16.227,5,15.924,5,15.149V4.852  c0-0.777,0.51-1.078,1.135-0.67l8.561,5.305C14.695,9.487,15,9.702,15,10.001z"
     id="path3337"
     style="fill:none;stroke:#7fc9ff;stroke-opacity:1;stroke-linejoin:round;stroke-linecap:round"
     inkscape:export-filename="D:\tmp\resources\new_icons\new-play-1.png"
     inkscape:export-xdpi="207.81"
     inkscape:export-ydpi="207.81" /><path
     inkscape:export-ydpi="207.81"
     inkscape:export-xdpi="207.81"
     inkscape:export-filename="D:\tmp\resources\new_icons\new-play-1.png"
     style="fill:none;stroke:#7fc9ff;stroke-opacity:1;stroke-linejoin:round;stroke-linecap:round"
     id="path4145"
     d="M15,10.001c0,0.299-0.305,0.514-0.305,0.514l-8.561,5.303C5.51,16.227,5,15.924,5,15.149V4.852  c0-0.777,0.51-1.078,1.135-0.67l8.561,5.305C14.695,9.487,15,9.702,15,10.001z" /></svg>