<?xml version="1.0" encoding="UTF-8" standalone="no"?>
<!-- Generator: Adobe Illustrator 15.0.2, SVG Export Plug-In . SVG Version: 6.00 Build 0)  -->

<svg
   xmlns:dc="http://purl.org/dc/elements/1.1/"
   xmlns:cc="http://creativecommons.org/ns#"
   xmlns:rdf="http://www.w3.org/1999/02/22-rdf-syntax-ns#"
   xmlns:svg="http://www.w3.org/2000/svg"
   xmlns="http://www.w3.org/2000/svg"
   xmlns:sodipodi="http://sodipodi.sourceforge.net/DTD/sodipodi-0.dtd"
   xmlns:inkscape="http://www.inkscape.org/namespaces/inkscape"
   version="1.1"
   id="Layer_1"
   x="0px"
   y="0px"
   width="512px"
   height="537.6px"
   viewBox="0 0 512 537.6"
   enable-background="new 0 0 512 537.6"
   xml:space="preserve"
   inkscape:version="0.91 r13725"
   sodipodi:docname="cover-files.svg"><metadata
     id="metadata9"><rdf:RDF><cc:Work
         rdf:about=""><dc:format>image/svg+xml</dc:format><dc:type
           rdf:resource="http://purl.org/dc/dcmitype/StillImage" /><dc:title></dc:title></cc:Work></rdf:RDF></metadata><defs
     id="defs7" /><sodipodi:namedview
     pagecolor="#ffffff"
     bordercolor="#666666"
     borderopacity="1"
     objecttolerance="10"
     gridtolerance="10"
     guidetolerance="10"
     inkscape:pageopacity="0"
     inkscape:pageshadow="2"
     inkscape:window-width="1920"
     inkscape:window-height="1001"
     id="namedview5"
     showgrid="false"
     inkscape:zoom="0.87797623"
     inkscape:cx="390.31091"
     inkscape:cy="209.41336"
     inkscape:window-x="-9"
     inkscape:window-y="-9"
     inkscape:window-maximized="1"
     inkscape:current-layer="Layer_1" /><g
     id="g4177"
     transform="matrix(1.0745906,0,0,1.0745906,-36.178976,-38.269083)"
     inkscape:export-xdpi="33.689331"
     inkscape:export-ydpi="33.689331"><path
       style="fill:#7fc9ff;fill-opacity:1"
       inkscape:connector-curvature="0"
       id="path3"
       d="m 231.08513,73.085062 c -4.60535,1.81108 -7.84446,6.4472 -7.84446,11.7502 l 0,76.214238 c 0,7.01807 5.68456,12.70238 12.70238,12.70238 l 101.619,0 c 7.01806,0 12.70238,-5.68431 12.70238,-12.70213 l 0,-76.214488 c 0,-7.01807 -5.68432,-12.70238 -12.70238,-12.70238 l -74.27764,0 52.49505,-21.18096 -4.38505,-10.57498 -80.30928,32.70812 z m 23.91148,87.964438 c -10.51146,0 -19.05356,-8.54085 -19.05356,-19.05381 0,-10.51295 8.5421,-19.05356 19.05356,-19.05356 10.51146,0 19.05356,8.54061 19.05356,19.05356 0,10.51296 -8.5421,19.05381 -19.05356,19.05381 z m 82.56544,-50.8095 -12.70237,0 0,-12.702368 -12.70238,0 0,12.702368 -76.21425,0 0,-25.404738 101.619,0 0,25.404738 z" /><path
       inkscape:connector-curvature="0"
       d="m 177.8078,389.61782 q -5.7054,-41.20563 9.50898,-84.31306 16.48225,-41.20563 51.34856,-67.8308 34.86631,-26.62516 75.75479,-32.33056 40.88849,-5.7054 83.99623,9.50899 41.20562,16.48224 68.14791,51.34853 26.9423,34.86631 32.33058,75.75481 5.38827,40.8885 -9.82579,83.99624 -16.48225,41.20562 -51.03142,68.14792 -34.54917,26.94232 -75.7548,32.33057 -41.20562,5.38827 -84.31302,-9.82579 -41.20562,-16.48225 -67.83081,-51.03142 -26.62516,-34.54917 -32.33056,-75.75479 z m 28.8441,-76.70585 q -21.87084,54.5182 1.26786,108.7196 23.1387,54.20142 77.65693,75.75479 54.5182,21.5534 108.7196,-1.585 54.20139,-23.13838 75.7548,-77.65691 21.55336,-54.51853 -1.58501,-108.40249 -23.13837,-53.88395 -77.65691,-75.75479 -54.51853,-21.87084 -108.40247,1.26786 -53.88396,23.13871 -75.7548,77.65694 z m 18.70119,7.6072 q 18.38404,-46.91104 64.66112,-66.56296 5.07147,-2.53573 6.97325,2.21894 1.90181,4.75464 -2.53573,6.65613 -42.47348,18.38403 -59.58965,61.49149 -1.90181,4.4375 -6.65615,2.53572 -4.75431,-1.90181 -2.85284,-6.33932 z m 19.01798,7.60718 q 15.21438,-39.30384 53.88426,-55.78609 4.43753,-1.9018 6.65614,2.85287 2.2186,4.75464 -2.85286,6.65612 -34.23236,14.58044 -48.81283,50.08069 -1.90178,4.43754 -6.33931,2.53573 -4.43754,-1.90178 -2.53573,-6.33932 z m 18.38403,6.97327 q 12.67866,-30.4288 43.10743,-43.74138 l 0.63393,-0.63395 q 4.43753,-1.90178 6.33934,2.85287 1.90178,4.75467 -2.53576,6.65613 -27.2591,11.41081 -38.03595,38.66992 -1.90179,5.07145 -6.65613,3.16967 -4.75434,-1.90181 -2.85286,-6.97326 z m 19.01798,7.60717 q 9.50898,-23.45551 32.64769,-33.2813 23.1387,-9.8258 46.59421,-0.31713 23.45551,9.50867 33.28131,32.64771 9.82579,23.13904 0.31711,46.59422 -9.50866,23.45517 -32.64769,33.28128 -23.13901,9.82613 -46.59419,0.31713 -23.45518,-9.50898 -33.28131,-32.64769 -9.82612,-23.1387 -0.31713,-46.59422 z m 18.70119,7.92432 q -6.02221,15.53153 0.63392,31.06272 6.65612,15.53117 22.18765,21.55371 15.5315,6.02251 31.06269,-0.63395 15.53119,-6.65645 21.5537,-22.18763 6.02253,-15.53118 -0.63392,-31.06271 -6.65646,-15.5315 -22.18765,-21.5537 -15.53119,-6.02221 -31.06268,0.63394 -15.53152,6.65613 -21.55371,22.18762 z m 18.70117,7.2904 q 3.16965,-7.6072 11.09396,-11.09398 7.92434,-3.48679 15.53152,-0.31714 7.60718,3.16967 11.09399,11.09398 3.48679,7.92432 0.31712,15.53153 -3.16965,7.60718 -11.09397,11.09399 -7.92432,3.48678 -15.53152,0.31711 -7.60718,-3.16967 -11.09399,-11.09398 -3.48678,-7.92433 -0.31711,-15.53151 z m 9.82579,11.4108 q 1.58498,3.80359 5.38859,5.38857 3.80359,1.585 7.60719,0 3.80358,-1.58498 5.38858,-5.38857 1.585,-3.80362 0,-7.6072 -1.585,-3.8036 -5.38858,-5.3886 -3.8036,-1.585 -7.60719,0 -3.80361,1.585 -5.38859,5.3886 -1.585,3.80358 0,7.6072 z m 34.54948,68.14791 q -1.90178,-4.75467 2.53573,-6.65614 27.2591,-11.41077 38.03597,-38.66987 1.90179,-5.07148 6.65613,-3.16967 4.75431,1.9018 2.85286,6.97326 -12.67866,31.06269 -43.10743,44.37527 l -0.63392,0 q -4.43754,1.90181 -6.33934,-2.85285 z m 7.92431,18.70118 q -2.21891,-4.43754 2.85287,-6.97327 34.86631,-14.58046 48.81281,-49.44674 1.9018,-5.07145 6.65614,-3.16967 4.75432,1.9018 2.85284,6.97326 -15.8483,38.6699 -54.5182,55.15215 -4.43751,1.90178 -6.65613,-2.53573 z m 7.92433,18.70117 q -1.90179,-4.75465 2.53574,-6.65613 42.47347,-18.38405 59.58966,-61.49146 1.90179,-4.43753 6.65613,-2.53573 4.75434,1.90178 2.85286,6.33932 -18.38406,46.91102 -64.66114,66.56292 l 0,0.63394 q -5.07145,1.90179 -6.97325,-2.85286 z"
       id="path4256"
       style="fill:#7fc9ff;fill-opacity:1;stroke:none;stroke-opacity:1"
       inkscape:export-xdpi="2.7"
       inkscape:export-ydpi="2.7" /><path
       inkscape:connector-curvature="0"
       d="m 43.522722,267.77619 q -2.9834,-7.86534 0.81366,-16.27312 5.15316,-10.57753 18.17166,-14.91703 5.42437,-1.89853 10.84875,-1.89853 9.49265,0 16.54434,5.15315 l 0,-74.58513 q 0,-3.25463 2.03421,-5.56006 2.03421,-2.30543 5.01748,-3.11908 l 73.771478,-13.0185 1.62731,0 q 3.25463,0 5.6956,2.16975 2.9834,2.44097 2.9834,6.50925 l 0,91.12948 q 0,4.88194 -2.16975,9.22143 -5.15315,10.57754 -18.17165,14.91703 -5.42438,1.89854 -10.84875,1.89854 -8.40778,0 -14.91703,-3.93275 -6.50924,-3.93274 -8.95021,-10.7132 -2.98341,-7.86535 0.81365,-16.27313 5.15316,-10.57753 18.17165,-14.91703 5.42438,-1.89853 10.84875,-1.89853 9.49266,0 16.54434,5.15316 l 0,-52.61643 -72.14417,12.74728 -1.627308,0 0,69.43199 q 0,4.88194 -2.16975,9.22143 -5.15316,10.57754 -18.17166,14.91704 -5.42437,1.89853 -10.84875,1.89853 -8.40778,0 -14.91703,-3.93274 -6.50925,-3.93275 -8.95022,-10.71321 z m 8.00103,-2.9834 q 2.03421,5.69559 9.08575,8.00102 7.05155,2.30543 14.91704,-0.40676 7.86548,-2.71219 11.79808,-8.54346 3.9326,-5.83127 1.76285,-11.52673 -2.16975,-5.69545 -9.08576,-8.00102 -6.916,-2.30556 -14.78149,0.40676 -7.86548,2.71233 -11.79808,8.54346 -3.9326,5.83113 -1.89853,11.52673 z m 46.78516,-86.51877 73.771488,-13.01849 0,-13.0185 -73.771488,13.0185 0,13.01849 z m 35.529648,73.50027 q 2.16975,5.69559 9.22144,8.00102 7.05168,2.30543 14.78148,-0.40676 7.72981,-2.71219 11.79809,-8.54346 4.06828,-5.83127 1.89853,-11.52672 -2.16975,-5.69546 -9.22144,-8.00103 -7.05169,-2.30556 -14.78149,0.40676 -7.7298,2.71233 -11.79808,8.54346 -4.06828,5.83114 -1.89853,11.52673 z"
       id="path4"
       style="fill:#7fc9ff;fill-opacity:1" /></g></svg>