<?xml version="1.0" encoding="UTF-8" standalone="no"?>
<!-- Generator: Adobe Illustrator 16.2.1, SVG Export Plug-In . SVG Version: 6.00 Build 0)  -->

<svg
   xmlns:dc="http://purl.org/dc/elements/1.1/"
   xmlns:cc="http://creativecommons.org/ns#"
   xmlns:rdf="http://www.w3.org/1999/02/22-rdf-syntax-ns#"
   xmlns:svg="http://www.w3.org/2000/svg"
   xmlns="http://www.w3.org/2000/svg"
   xmlns:sodipodi="http://sodipodi.sourceforge.net/DTD/sodipodi-0.dtd"
   xmlns:inkscape="http://www.inkscape.org/namespaces/inkscape"
   version="1.1"
   id="Layer_1"
   x="0px"
   y="0px"
   width="512px"
   height="512px"
   viewBox="0 0 512 512"
   style="enable-background:new 0 0 512 512;"
   xml:space="preserve"
   inkscape:version="0.91 r13725"
   sodipodi:docname="folder.svg"><metadata
     id="metadata9"><rdf:RDF><cc:Work
         rdf:about=""><dc:format>image/svg+xml</dc:format><dc:type
           rdf:resource="http://purl.org/dc/dcmitype/StillImage" /><dc:title /></cc:Work></rdf:RDF></metadata><defs
     id="defs7" /><sodipodi:namedview
     pagecolor="#ffffff"
     bordercolor="#666666"
     borderopacity="1"
     objecttolerance="10"
     gridtolerance="10"
     guidetolerance="10"
     inkscape:pageopacity="0"
     inkscape:pageshadow="2"
     inkscape:window-width="1920"
     inkscape:window-height="1001"
     id="namedview5"
     showgrid="false"
     inkscape:zoom="5.2149125"
     inkscape:cx="174.64009"
     inkscape:cy="337.68507"
     inkscape:window-x="-9"
     inkscape:window-y="-9"
     inkscape:window-maximized="1"
     inkscape:current-layer="Layer_1" /><path
     d="m 229.99222,125.1565 c 0,0 -70.38573,0 -75.982,0 -2.13842,0 -4.86832,-4.07029 -8.41717,-7.81167 C 142.36267,113.93236 138.90481,112 136.26591,112 c -3.41237,0 -27.43542,0 -27.43542,0 C 101.77827,112 96,115.65915 96,121.99071 l 0,96.45355 c 0,6.37268 5.77827,11.96418 12.83049,11.96418 l 121.16173,0 c 7.05222,0 11.60205,-5.5915 11.60205,-11.96418 l 0,-83.09149 c 0,-6.37267 -4.54983,-10.19627 -11.60205,-10.19627 z m -121.16173,-6.57825 19.92822,0 c 0,0 3.36687,0 5.14129,0 1.77444,0 3.91285,0.65782 6.50625,3.41246 5.50529,5.87931 7.05222,9.74404 13.60397,9.74404 l 75.982,0 c 3.00288,0 4.32233,0.9045 4.32233,3.61802 l 0,9.53847 -131.03484,0 0,-22.90053 c 0,-3.70026 4.68632,-3.41246 5.55078,-3.41246 z m 121.16173,105.25194 -121.16173,0 c -2.95738,0 -5.55078,-2.54906 -5.55078,-5.38593 l 0,-66.97478 131.03484,0 0,66.97478 c 0,2.46684 -1.18295,5.38593 -4.32233,5.38593 z"
     id="path3"
     inkscape:connector-curvature="0"
     style="fill:#feff7f;fill-opacity:1"
     inkscape:export-xdpi="22.799999"
     inkscape:export-ydpi="22.799999" /></svg>