<?xml version="1.0" encoding="UTF-8" standalone="no"?>
<!-- Generator: Adobe Illustrator 18.1.1, SVG Export Plug-In . SVG Version: 6.00 Build 0)  -->

<svg
   xmlns:dc="http://purl.org/dc/elements/1.1/"
   xmlns:cc="http://creativecommons.org/ns#"
   xmlns:rdf="http://www.w3.org/1999/02/22-rdf-syntax-ns#"
   xmlns:svg="http://www.w3.org/2000/svg"
   xmlns="http://www.w3.org/2000/svg"
   xmlns:sodipodi="http://sodipodi.sourceforge.net/DTD/sodipodi-0.dtd"
   xmlns:inkscape="http://www.inkscape.org/namespaces/inkscape"
   version="1.1"
   id="Warning"
   x="0px"
   y="0px"
   viewBox="0 0 20 20"
   enable-background="new 0 0 20 20"
   xml:space="preserve"
   inkscape:version="0.91 r13725"
   sodipodi:docname="new-info.svg"
   inkscape:export-filename="/home/pps/src/Pi-Jukebox/resources/new_icons_tmp/new-info.png"
   inkscape:export-xdpi="214.75999"
   inkscape:export-ydpi="214.75999"><metadata
     id="metadata9"><rdf:RDF><cc:Work
         rdf:about=""><dc:format>image/svg+xml</dc:format><dc:type
           rdf:resource="http://purl.org/dc/dcmitype/StillImage" /><dc:title /></cc:Work></rdf:RDF></metadata><defs
     id="defs7" /><sodipodi:namedview
     pagecolor="#ffffff"
     bordercolor="#666666"
     borderopacity="1"
     objecttolerance="10"
     gridtolerance="10"
     guidetolerance="10"
     inkscape:pageopacity="0"
     inkscape:pageshadow="2"
     inkscape:window-width="1920"
     inkscape:window-height="1001"
     id="namedview5"
     showgrid="false"
     inkscape:zoom="33.37544"
     inkscape:cx="0.17680775"
     inkscape:cy="11.75414"
     inkscape:window-x="-9"
     inkscape:window-y="-9"
     inkscape:window-maximized="1"
     inkscape:current-layer="Warning" /><g
     id="g4134"
     inkscape:export-filename="D:\tmp\resources\new_icons\new-info.png"
     inkscape:export-xdpi="214"
     inkscape:export-ydpi="214"><circle
       r="9.1384563"
       cy="10.022602"
       cx="10.007359"
       id="path4295"
       style="fill:none;fill-opacity:1;stroke:#7fc9ff;stroke-opacity:1" /><path
       style="fill:none;stroke:#7fc9ff;stroke-opacity:1;stroke-linecap:round;stroke-linejoin:round"
       id="path3"
       d="m 11.287542,2.7908458 c 0.952995,0 1.429494,0.6486062 1.429494,1.3918006 0,0.9281042 -0.827826,1.7865115 -1.90528,1.7865115 -0.9025015,0 -1.4287826,-0.5333931 -1.4038907,-1.4152698 0,-0.7417721 0.6265597,-1.7630423 1.8796767,-1.7630423 z M 8.355303,17.014666 c -0.7524405,0 -1.3036123,-0.463697 -0.7773312,-2.506238 L 8.441357,10.887043 c 0.1500615,-0.578909 0.1749534,-0.81147 0,-0.81147 -0.2254471,0 -1.2012016,0.399691 -1.7793998,0.794402 L 6.2864487,10.244127 C 8.1156311,8.6894628 10.220045,7.7784281 11.123257,7.7784281 c 0.75173,0 0.876899,0.905345 0.50139,2.2971449 L 10.63538,13.88187 c -0.174953,0.672074 -0.100271,0.903923 0.07539,0.903923 0.225448,0 0.965086,-0.278787 1.691924,-0.858408 l 0.426714,0.57891 c -1.779401,1.811402 -3.723085,2.508371 -4.4741022,2.508371 z"
       inkscape:connector-curvature="0" /></g></svg>