<?xml version="1.0" encoding="UTF-8" standalone="no"?>
<!-- Generator: Adobe Illustrator 15.0.2, SVG Export Plug-In . SVG Version: 6.00 Build 0)  -->

<svg
   xmlns:dc="http://purl.org/dc/elements/1.1/"
   xmlns:cc="http://creativecommons.org/ns#"
   xmlns:rdf="http://www.w3.org/1999/02/22-rdf-syntax-ns#"
   xmlns:svg="http://www.w3.org/2000/svg"
   xmlns="http://www.w3.org/2000/svg"
   xmlns:sodipodi="http://sodipodi.sourceforge.net/DTD/sodipodi-0.dtd"
   xmlns:inkscape="http://www.inkscape.org/namespaces/inkscape"
   version="1.1"
   id="Layer_1"
   x="0px"
   y="0px"
   width="512.001px"
   height="449.468px"
   viewBox="-0.002 0 512.001 449.468"
   enable-background="new -0.002 0 512.001 449.468"
   xml:space="preserve"
   inkscape:version="0.91 r13725"
   sodipodi:docname="warning.svg"><metadata
     id="metadata15"><rdf:RDF><cc:Work
         rdf:about=""><dc:format>image/svg+xml</dc:format><dc:type
           rdf:resource="http://purl.org/dc/dcmitype/StillImage" /></cc:Work></rdf:RDF></metadata><defs
     id="defs13" /><sodipodi:namedview
     pagecolor="#ffffff"
     bordercolor="#666666"
     borderopacity="1"
     objecttolerance="10"
     gridtolerance="10"
     guidetolerance="10"
     inkscape:pageopacity="0"
     inkscape:pageshadow="2"
     inkscape:window-width="1920"
     inkscape:window-height="1001"
     id="namedview11"
     showgrid="false"
     inkscape:zoom="1.8918481"
     inkscape:cx="238.11676"
     inkscape:cy="230.64113"
     inkscape:window-x="-9"
     inkscape:window-y="-9"
     inkscape:window-maximized="1"
     inkscape:current-layer="Layer_1" /><g
     id="g4180"
     inkscape:export-xdpi="10.83"
     inkscape:export-ydpi="10.83"><path
       inkscape:connector-curvature="0"
       id="path4162"
       d="M 238.14206,63.837847 C 228.31239,63.794213 223.52614,75.010113 219.67454,83.178405 165.05689,187.16121 109.63649,290.67401 55.557092,394.97214 c -3.525265,11.39196 7.189085,23.80778 17.794534,21.20569 112.330104,-0.17562 224.678764,0.3659 336.997264,-0.28645 10.97822,-2.02325 15.7447,-18.72763 8.21603,-27.51945 C 362.30341,282.12483 306.63627,175.49364 249.98133,69.500885 c -2.91931,-3.691591 -7.37616,-5.840062 -11.83927,-5.663038 z"
       style="fill:none;fill-opacity:1;stroke:#feff7f;stroke-width:18;stroke-linecap:round;stroke-linejoin:round;stroke-miterlimit:4;stroke-dasharray:none;stroke-opacity:1" /><path
       d="m 217.14824,178.67436 0,95.66923 c 0,11.84365 9.60262,21.44627 21.44627,21.44627 11.84364,0 21.44627,-9.60262 21.44627,-21.44627 l 0,-95.66923 c 0,-11.84365 -9.60263,-21.44628 -21.44627,-21.44628 -11.84365,0 -21.44627,9.60263 -21.44627,21.44628 z"
       id="path7"
       inkscape:connector-curvature="0"
       style="fill:none;fill-opacity:1;stroke:#feff7f;stroke-width:18;stroke-linecap:round;stroke-linejoin:round;stroke-miterlimit:4;stroke-dasharray:none;stroke-opacity:1" /><path
       d="m 238.56747,328.73876 c -7.03161,0 -13.94855,2.83763 -18.92839,7.83237 -4.98449,4.99009 -7.87898,11.90145 -7.87898,18.975 0,7.03162 2.89449,13.94297 7.87898,18.92187 4.99102,4.99475 11.90611,7.88551 18.92839,7.88551 7.0689,0 13.98492,-2.89076 18.97967,-7.88551 4.98542,-4.99009 7.87991,-11.90144 7.87991,-18.92187 0,-7.07449 -2.89449,-13.98584 -7.87991,-18.975 -4.98916,-4.98915 -11.90611,-7.83237 -18.97967,-7.83237 z"
       id="path9"
       inkscape:connector-curvature="0"
       style="fill:none;fill-opacity:1;stroke:#feff7f;stroke-width:18;stroke-linecap:round;stroke-linejoin:round;stroke-miterlimit:4;stroke-dasharray:none;stroke-opacity:1" /></g></svg>