<?xml version="1.0" encoding="UTF-8" standalone="no"?>
<!-- Generator: Adobe Illustrator 15.0.2, SVG Export Plug-In . SVG Version: 6.00 Build 0)  -->

<svg
   xmlns:dc="http://purl.org/dc/elements/1.1/"
   xmlns:cc="http://creativecommons.org/ns#"
   xmlns:rdf="http://www.w3.org/1999/02/22-rdf-syntax-ns#"
   xmlns:svg="http://www.w3.org/2000/svg"
   xmlns="http://www.w3.org/2000/svg"
   xmlns:sodipodi="http://sodipodi.sourceforge.net/DTD/sodipodi-0.dtd"
   xmlns:inkscape="http://www.inkscape.org/namespaces/inkscape"
   version="1.1"
   id="Layer_1"
   x="0px"
   y="0px"
   width="512px"
   height="512px"
   viewBox="0 0 512 512"
   enable-background="new 0 0 512 512"
   xml:space="preserve"
   inkscape:version="0.91 r13725"
   sodipodi:docname="error.svg"><metadata
     id="metadata11"><rdf:RDF><cc:Work
         rdf:about=""><dc:format>image/svg+xml</dc:format><dc:type
           rdf:resource="http://purl.org/dc/dcmitype/StillImage" /></cc:Work></rdf:RDF></metadata><defs
     id="defs9"><pattern
       y="0"
       x="0"
       height="6"
       width="6"
       patternUnits="userSpaceOnUse"
       id="EMFhbasepattern" /></defs><sodipodi:namedview
     pagecolor="#ffffff"
     bordercolor="#666666"
     borderopacity="1"
     objecttolerance="10"
     gridtolerance="10"
     guidetolerance="10"
     inkscape:pageopacity="0"
     inkscape:pageshadow="2"
     inkscape:window-width="1920"
     inkscape:window-height="1001"
     id="namedview7"
     showgrid="false"
     inkscape:zoom="0.921875"
     inkscape:cx="252.99546"
     inkscape:cy="211.50578"
     inkscape:window-x="-9"
     inkscape:window-y="-9"
     inkscape:window-maximized="1"
     inkscape:current-layer="Layer_1" /><g
     id="g4175"
     inkscape:export-xdpi="8.0701904"
     inkscape:export-ydpi="8.0701904"><path
       d="M 480,348.766 348.766,480 163.234,480 32,348.766 32,163.234 163.234,32 348.796,32 480,163.234 480,348.766 Z M 371.422,9.375 C 365.406,3.359 357.281,0 348.766,0 L 163.234,0 C 154.75,0 146.593,3.359 140.609,9.375 L 9.406,140.609 C 3.359,146.594 0,154.719 0,163.234 l 0,185.562 c 0,8.484 3.359,16.641 9.375,22.625 l 131.203,131.234 c 6.016,5.984 14.141,9.344 22.656,9.344 l 185.562,0 c 8.484,0 16.641,-3.359 22.625,-9.375 L 502.624,371.39 c 6.016,-5.984 9.375,-14.109 9.375,-22.625 l 0,-185.531 c 0,-8.484 -3.359,-16.641 -9.375,-22.625 L 371.422,9.375 Z"
       style="fill:#ff2a2a;stroke:#ff2a2a"
       id="path4144" /><g
       id="g4171"><path
         inkscape:connector-curvature="0"
         id="path4154"
         d="m 222.75301,114.76017 0,148.33048 c 0,18.25086 14.87955,33.13051 33.24646,33.13051 18.36696,0 33.24662,-14.87965 33.24662,-33.13051 l 0,-148.33048 c 0,-18.366916 -14.87966,-33.246568 -33.24662,-33.246568 -18.36691,0 -33.24646,14.879652 -33.24646,33.246568 z"
         style="fill:none;stroke:#ff2a2a;stroke-width:28;stroke-linecap:round;stroke-linejoin:round;stroke-miterlimit:4;stroke-dasharray:none;stroke-opacity:1" /><path
         inkscape:connector-curvature="0"
         id="path4156"
         d="m 255.88327,347.37007 c -10.8109,0 -21.62192,4.41738 -29.29408,12.08971 -7.67233,7.78859 -12.20592,18.48334 -12.20592,29.40908 0,10.92722 4.53359,21.62202 12.20592,29.41056 7.78843,7.67233 18.48318,12.20598 29.29408,12.20598 11.04347,0 21.73811,-4.53365 29.41043,-12.20598 7.78855,-7.78854 12.32203,-18.48334 12.32203,-29.41056 0,-10.92574 -4.53348,-21.62049 -12.32203,-29.40908 -7.67232,-7.67233 -18.36696,-12.08971 -29.41043,-12.08971 z"
         style="fill:none;stroke:#ff2a2a;stroke-width:28;stroke-linecap:round;stroke-linejoin:round;stroke-miterlimit:4;stroke-dasharray:none;stroke-opacity:1" /></g></g></svg>