<?xml version="1.0" encoding="UTF-8" standalone="no"?>
<svg
   xmlns:dc="http://purl.org/dc/elements/1.1/"
   xmlns:cc="http://creativecommons.org/ns#"
   xmlns:rdf="http://www.w3.org/1999/02/22-rdf-syntax-ns#"
   xmlns:svg="http://www.w3.org/2000/svg"
   xmlns="http://www.w3.org/2000/svg"
   xmlns:sodipodi="http://sodipodi.sourceforge.net/DTD/sodipodi-0.dtd"
   xmlns:inkscape="http://www.inkscape.org/namespaces/inkscape"
   height="1000"
   width="998"
   id="svg4254"
   version="1.1"
   inkscape:version="0.91 r13725"
   sodipodi:docname="playing-song.svg">
  <metadata
     id="metadata4262">
    <rdf:RDF>
      <cc:Work
         rdf:about="">
        <dc:format>image/svg+xml</dc:format>
        <dc:type
           rdf:resource="http://purl.org/dc/dcmitype/StillImage" />
        <dc:title></dc:title>
      </cc:Work>
    </rdf:RDF>
  </metadata>
  <defs
     id="defs4260" />
  <sodipodi:namedview
     pagecolor="#ffffff"
     bordercolor="#666666"
     borderopacity="1"
     objecttolerance="10"
     gridtolerance="10"
     guidetolerance="10"
     inkscape:pageopacity="0"
     inkscape:pageshadow="2"
     inkscape:window-width="1920"
     inkscape:window-height="1001"
     id="namedview4258"
     showgrid="false"
     inkscape:zoom="0.54225715"
     inkscape:cx="393.74656"
     inkscape:cy="556.22087"
     inkscape:window-x="-9"
     inkscape:window-y="-9"
     inkscape:window-maximized="1"
     inkscape:current-layer="svg4254" />
  <path
     id="path4159"
     style="fill:#b7ff9d;fill-opacity:1;stroke:none;stroke-opacity:1"
     d="m 601.438,779.313 c -4.55733,-9.114 -1.62767,-16.275 8.789,-21.483 71.61,-29.946 121.737,-80.724 150.381,-152.334 3.906,-10.416 10.74133,-13.671 20.506,-9.765 9.76467,3.906 12.69433,11.067 8.789,21.483 -32.55,79.422 -88.536,136.059 -167.958,169.911 -9.114,3.906 -15.94933,1.302 -20.506,-7.812 z M 382.701,454.137 c -12.36867,31.89933 -11.71767,63.79833 1.953,95.697 13.67067,31.89867 36.45567,54.03267 68.355,66.402 31.89933,12.36933 63.79833,11.71833 95.697,-1.953 31.89867,-13.67133 54.03267,-36.45633 66.402,-68.355 12.36933,-31.89867 11.71833,-63.79767 -1.953,-95.697 -13.67133,-31.89933 -36.45633,-54.03333 -68.355,-66.402 -31.89867,-12.36867 -63.79767,-11.71767 -95.697,1.953 -31.89933,13.67067 -54.03333,36.45567 -66.402,68.355 z m -57.614,-24.413 c 19.53,-48.174 53.05667,-82.35133 100.58,-102.532 47.52333,-20.18067 95.372,-20.50633 143.546,-0.977 48.174,19.52933 82.35133,53.056 102.532,100.58 20.18067,47.524 20.50633,95.37267 0.977,143.546 -19.52933,48.17333 -53.056,82.35067 -100.58,102.532 -47.524,20.18133 -95.37267,20.507 -143.546,0.977 C 380.42267,654.32 346.24533,620.79333 326.064,573.27 305.88267,525.74667 305.557,477.898 325.087,429.724 Z M 209.86,384.805 c 31.248,-80.724 86.583,-138.012 166.005,-171.864 9.114,-3.906 15.94933,-0.97633 20.506,8.789 4.55667,9.76533 1.627,16.60067 -8.789,20.506 -70.308,29.946 -120.435,81.375 -150.381,154.287 -3.906,9.114 -10.416,11.718 -19.53,7.812 -9.114,-3.906 -11.718,-10.416 -7.812,-19.53 z M 93.656,337.933 c -44.919333,111.972 -43.617333,223.61867 3.906,334.94 47.52333,111.32133 127.271,189.11567 239.243,233.383 111.972,44.26733 223.61867,42.63967 334.94,-4.883 C 783.06633,853.85033 860.86067,774.10267 905.128,662.13 949.39533,550.15733 947.76767,438.83633 900.245,328.167 852.72233,217.49767 772.97467,139.70333 661.002,94.784 549.02933,49.864667 437.70833,51.166667 327.039,98.69 216.36967,146.21333 138.57533,225.961 93.656,337.933 Z M 4.794,574.246 C -6.924,489.616 2.841,403.033 34.089,314.497 67.941,229.867 120.672,160.21 192.282,105.526 263.892,50.842 341.68633,17.641 425.665,5.923 509.64367,-5.795 595.90133,3.97 684.438,35.218 c 84.63,33.852 154.61267,86.583 209.948,158.193 55.33533,71.61 88.53633,149.40433 99.603,233.383 11.0667,83.97867 0.97633,170.23633 -30.271,258.773 -33.852,84.63 -86.25733,154.61267 -157.216,209.948 -70.95867,55.33533 -148.753,88.53633 -233.383,99.603 -84.63,11.0667 -171.213,0.97633 -259.749,-30.271 C 228.74,930.995 159.083,878.58967 104.399,807.631 49.715,736.67233 16.514,658.878 4.796,574.248 Z"
     inkscape:connector-curvature="0"
     sodipodi:nodetypes="cccsccccssssssssssssssssssccsccsccsssssssssccsscsscsscscc"
     inkscape:export-xdpi="1.2621074"
     inkscape:export-ydpi="1.2621074" />
</svg>
