<?xml version="1.0" encoding="UTF-8" standalone="no"?>
<!-- Generator: Adobe Illustrator 19.0.1, SVG Export Plug-In . SVG Version: 6.00 Build 0)  -->

<svg
   xmlns:dc="http://purl.org/dc/elements/1.1/"
   xmlns:cc="http://creativecommons.org/ns#"
   xmlns:rdf="http://www.w3.org/1999/02/22-rdf-syntax-ns#"
   xmlns:svg="http://www.w3.org/2000/svg"
   xmlns="http://www.w3.org/2000/svg"
   xmlns:sodipodi="http://sodipodi.sourceforge.net/DTD/sodipodi-0.dtd"
   xmlns:inkscape="http://www.inkscape.org/namespaces/inkscape"
   version="1.1"
   id="Layer_1"
   x="0px"
   y="0px"
   viewBox="0 0 24 24"
   style="enable-background:new 0 0 24 24;"
   xml:space="preserve"
   inkscape:version="0.91 r13725"
   sodipodi:docname="radio.svg"><metadata
     id="metadata11"><rdf:RDF><cc:Work
         rdf:about=""><dc:format>image/svg+xml</dc:format><dc:type
           rdf:resource="http://purl.org/dc/dcmitype/StillImage" /><dc:title></dc:title></cc:Work></rdf:RDF></metadata><defs
     id="defs9" /><sodipodi:namedview
     pagecolor="#ffffff"
     bordercolor="#666666"
     borderopacity="1"
     objecttolerance="10"
     gridtolerance="10"
     guidetolerance="10"
     inkscape:pageopacity="0"
     inkscape:pageshadow="2"
     inkscape:window-width="1920"
     inkscape:window-height="1001"
     id="namedview7"
     showgrid="false"
     inkscape:zoom="9.8333333"
     inkscape:cx="12"
     inkscape:cy="12"
     inkscape:window-x="-9"
     inkscape:window-y="-9"
     inkscape:window-maximized="1"
     inkscape:current-layer="Layer_1" /><style
     type="text/css"
     id="style3">
	.st0{fill:#1E232D;}
</style><path
     class="st0"
     d="M8.8,8C8.4,7.6,8,6.9,8,6s0.4-1.6,0.8-2L7.2,2.7C6.4,3.6,6,4.8,6,6s0.4,2.4,1.2,3.3L8.8,8z M14,6  c0-1.1-0.9-2-2-2s-2,0.9-2,2c0,0.7,0.4,1.4,1,1.7L5,24h2.1l0-0.1l4.9-4.3l4.9,4.3l0,0.1H19L13,7.7C13.6,7.4,14,6.7,14,6z M8.6,19.9  l0.9-2.5l1,0.8L8.6,19.9z M15.4,19.9l-5.1-4.5l1.7-4.7L15.4,19.9z M4,6c0-1.5,0.6-2.9,1.8-4.4L4.2,0.4C2.7,2.2,2,4.1,2,6  s0.7,3.8,2.2,5.6l1.5-1.3C4.6,8.9,4,7.5,4,6z M16.8,9.3C17.6,8.4,18,7.2,18,6c0-1.2-0.4-2.4-1.2-3.3L15.2,4C15.6,4.4,16,5.1,16,6  c0,0.9-0.4,1.6-0.8,2L16.8,9.3z M19.8,0.4l-1.5,1.3C19.4,3.1,20,4.5,20,6c0,1.5-0.6,2.9-1.8,4.4l1.5,1.3C21.3,9.8,22,7.9,22,6  C22,4.1,21.3,2.2,19.8,0.4z"
     id="path5"
     style="fill:#fefe7f;fill-opacity:1"
     inkscape:export-filename="D:\tmp\resources\new_icons_src\radio.png"
     inkscape:export-xdpi="112.5"
     inkscape:export-ydpi="112.5" /></svg>