<?xml version="1.0" encoding="UTF-8"?>
<!-- Generator: Adobe Illustrator 15.0.2, SVG Export Plug-In . SVG Version: 6.00 Build 0)  -->
<!DOCTYPE svg PUBLIC "-//W3C//DTD SVG 1.1//EN" "http://www.w3.org/Graphics/SVG/1.1/DTD/svg11.dtd">
<svg xmlns="http://www.w3.org/2000/svg" xmlns:xlink="http://www.w3.org/1999/xlink" version="1.1" id="Layer_1" x="0px" y="0px" width="512px" height="537.6px" viewBox="0 0 512 537.6" enable-background="new 0 0 512 537.6" xml:space="preserve">
<path d="M31.619,131.838C13.056,139.138,0,157.825,0,179.2v307.2C0,514.688,22.913,537.6,51.2,537.6h409.6  c28.288,0,51.2-22.912,51.2-51.199V179.2c0-28.288-22.912-51.2-51.2-51.2H161.406L373,42.625L355.325,0L31.619,131.838z M128,486.4  c-42.369,0-76.8-34.426-76.8-76.801s34.431-76.8,76.8-76.8s76.8,34.425,76.8,76.8S170.369,486.4,128,486.4z M460.8,281.6h-51.2  V230.4H358.4V281.6H51.2V179.2h409.6V281.6z" fill="#000000"/>
</svg>
