<?xml version="1.0" encoding="UTF-8" standalone="no"?>
<svg
   xmlns:dc="http://purl.org/dc/elements/1.1/"
   xmlns:cc="http://creativecommons.org/ns#"
   xmlns:rdf="http://www.w3.org/1999/02/22-rdf-syntax-ns#"
   xmlns:svg="http://www.w3.org/2000/svg"
   xmlns="http://www.w3.org/2000/svg"
   xmlns:sodipodi="http://sodipodi.sourceforge.net/DTD/sodipodi-0.dtd"
   xmlns:inkscape="http://www.inkscape.org/namespaces/inkscape"
   enable-background="new 0 0 500 500"
   height="500px"
   id="Layer_1"
   version="1.1"
   viewBox="0 0 500 500"
   width="500px"
   xml:space="preserve"
   inkscape:version="0.91 r13725"
   sodipodi:docname="search.svg"
   inkscape:export-filename="D:\tmp\resources\new_icons_src\search.png"
   inkscape:export-xdpi="6.3299999"
   inkscape:export-ydpi="6.3299999"><metadata
     id="metadata4221"><rdf:RDF><cc:Work
         rdf:about=""><dc:format>image/svg+xml</dc:format><dc:type
           rdf:resource="http://purl.org/dc/dcmitype/StillImage" /><dc:title></dc:title></cc:Work></rdf:RDF></metadata><defs
     id="defs4219" /><sodipodi:namedview
     pagecolor="#ffffff"
     bordercolor="#666666"
     borderopacity="1"
     objecttolerance="10"
     gridtolerance="10"
     guidetolerance="10"
     inkscape:pageopacity="0"
     inkscape:pageshadow="2"
     inkscape:window-width="1920"
     inkscape:window-height="1001"
     id="namedview4217"
     showgrid="false"
     inkscape:zoom="1.616"
     inkscape:cx="250"
     inkscape:cy="250"
     inkscape:window-x="-9"
     inkscape:window-y="-9"
     inkscape:window-maximized="1"
     inkscape:current-layer="Layer_1" /><path
     style="fill:#7fc9ff;fill-opacity:1;stroke:none;stroke-width:18;stroke-linecap:round;stroke-linejoin:round;stroke-miterlimit:4;stroke-dasharray:none;stroke-opacity:1"
     d="m 296.48901,161.51574 c 19.628,4.543 35.244,21.259 39.787,39.523 1.551,8.54 8.998,14.989 17.904,14.989 9.991,0 18.168,-8.175 18.168,-18.17 0,-13.083 -10.991,-32.98 -25.985,-47.881 -14.719,-14.537 -32.252,-24.802 -46.695,-24.802 -9.991,0 -18.172,8.45 -18.172,18.446 -0.001,8.899 6.45,16.351 14.993,17.895 z"
     id="path4227"
     inkscape:connector-curvature="0" /><path
     style="stroke:#7fc9ff;stroke-opacity:1;fill:none;stroke-linecap:round;stroke-linejoin:round;stroke-width:18;stroke-miterlimit:4;stroke-dasharray:none"
     d="m 56.629,392.312 c -14.09,14.08 -14.09,36.979 0,51.059 14.08,14.092 36.981,14.092 50.965,0 L 211.986,339.068 c 24.347,15.181 53.062,23.991 83.953,23.991 87.857,0 158.995,-71.142 158.995,-158.999 0,-87.854 -71.138,-158.995 -158.995,-158.995 -87.856,0 -158.995,71.141 -158.995,158.995 0,30.802 8.819,59.606 23.992,83.953 L 56.629,392.312 Z"
     id="path4225" /><path
     style="stroke:#7fc9ff;stroke-opacity:1;fill:none;stroke-linecap:round;stroke-linejoin:round;stroke-width:18;stroke-miterlimit:4;stroke-dasharray:none"
     d="m 182.371,204.06 c 0,-62.687 50.875,-113.568 113.568,-113.568 62.693,0 113.569,50.881 113.569,113.568 0,62.694 -50.876,113.569 -113.569,113.569 -62.693,0 -113.568,-50.875 -113.568,-113.569 z"
     id="path4215" /></svg>