<?xml version="1.0" encoding="UTF-8" standalone="no"?>
<!-- Generator: Adobe Illustrator 15.0.2, SVG Export Plug-In . SVG Version: 6.00 Build 0)  -->

<svg
   xmlns:dc="http://purl.org/dc/elements/1.1/"
   xmlns:cc="http://creativecommons.org/ns#"
   xmlns:rdf="http://www.w3.org/1999/02/22-rdf-syntax-ns#"
   xmlns:svg="http://www.w3.org/2000/svg"
   xmlns="http://www.w3.org/2000/svg"
   xmlns:sodipodi="http://sodipodi.sourceforge.net/DTD/sodipodi-0.dtd"
   xmlns:inkscape="http://www.inkscape.org/namespaces/inkscape"
   version="1.1"
   id="Layer_1"
   x="0px"
   y="0px"
   width="512.002px"
   height="526.229px"
   viewBox="0 0 512.002 526.229"
   enable-background="new 0 0 512.002 526.229"
   xml:space="preserve"
   inkscape:version="0.91 r13725"
   sodipodi:docname="settings.svg"><metadata
     id="metadata9"><rdf:RDF><cc:Work
         rdf:about=""><dc:format>image/svg+xml</dc:format><dc:type
           rdf:resource="http://purl.org/dc/dcmitype/StillImage" /></cc:Work></rdf:RDF></metadata><defs
     id="defs7" /><sodipodi:namedview
     pagecolor="#ffffff"
     bordercolor="#666666"
     borderopacity="1"
     objecttolerance="10"
     gridtolerance="10"
     guidetolerance="10"
     inkscape:pageopacity="0"
     inkscape:pageshadow="2"
     inkscape:window-width="1920"
     inkscape:window-height="1001"
     id="namedview5"
     showgrid="false"
     inkscape:zoom="0.8969479"
     inkscape:cx="222.71179"
     inkscape:cy="203.11988"
     inkscape:window-x="-9"
     inkscape:window-y="-9"
     inkscape:window-maximized="1"
     inkscape:current-layer="Layer_1" /><path
     d="m 437.47168,286.29481 c 0.96283,-7.60286 1.69158,-15.33401 1.69158,-23.17991 0,-7.8459 -0.72875,-15.57072 -1.69158,-23.17991 l 50.88831,-39.33789 c 4.5819,-3.56879 5.89677,-9.98808 2.88941,-15.21748 l -48.11594,-82.36746 c -3.00737,-5.112837 -9.25708,-7.254106 -14.68477,-5.112837 L 368.54926,121.78757 C 356.1559,112.39671 342.5766,104.43426 327.89184,98.375461 l -9.02209,-62.999372 c -1.07987,-5.583561 -6.01289,-9.982648 -12.02761,-9.982648 l -96.23372,0 c -6.0138,0 -10.94866,4.399087 -11.91149,9.982648 l -9.02116,62.999372 C 175.00289,104.43426 161.4117,112.28105 149.01834,121.78757 L 89.112518,97.899323 c -5.409408,-2.019297 -11.664609,0 -14.67197,5.112837 l -48.116856,82.36656 c -3.00736,5.11285 -1.686096,11.53304 2.883921,15.21747 l 50.765784,39.3379 C 79.009652,247.54328 78.2873,255.2681 78.2873,263.114 c 0,7.8459 0.722352,15.57705 1.686097,23.17991 l -50.765784,39.3379 c -4.570017,3.5751 -5.891281,9.98265 -2.883921,15.21747 l 48.116856,82.36656 c 3.007361,5.11916 9.262562,7.2541 14.67197,5.11916 l 59.905822,-23.88824 c 12.39336,9.37912 25.98455,17.34156 40.65743,23.40036 l 9.02116,63.00479 c 0.96375,5.58356 5.89769,9.98265 11.91149,9.98265 l 96.23372,0 c 6.01472,0 10.94865,-4.39909 11.91148,-9.98265 l 9.02209,-63.00479 c 14.67197,-6.0588 28.26316,-13.9056 40.65652,-23.40036 l 59.89941,23.88824 c 5.41582,2.0193 11.67742,0 14.68477,-5.11916 l 48.11686,-82.36656 c 3.00736,-5.11917 1.6797,-11.52671 -2.8894,-15.21747 l -50.77219,-39.337 z m -178.7464,60.02147 c -46.5542,0 -84.20427,-37.20205 -84.20427,-83.20228 0,-46.00023 37.65007,-83.20228 84.20427,-83.20228 46.5542,0 84.20427,37.20205 84.20427,83.20228 0,46.00023 -37.65007,83.20228 -84.20427,83.20228 z"
     id="path3"
     style="fill:none;stroke:#b7ff9d;stroke-width:28.15871429;stroke-linecap:round;stroke-linejoin:round;stroke-miterlimit:4;stroke-dasharray:none;stroke-opacity:1"
     inkscape:connector-curvature="0"
     inkscape:export-xdpi="5.3614035"
     inkscape:export-ydpi="5.3614035" /></svg>