<?xml version="1.0" encoding="UTF-8" standalone="no"?>
<svg
   xmlns:dc="http://purl.org/dc/elements/1.1/"
   xmlns:cc="http://creativecommons.org/ns#"
   xmlns:rdf="http://www.w3.org/1999/02/22-rdf-syntax-ns#"
   xmlns:svg="http://www.w3.org/2000/svg"
   xmlns="http://www.w3.org/2000/svg"
   xmlns:sodipodi="http://sodipodi.sourceforge.net/DTD/sodipodi-0.dtd"
   xmlns:inkscape="http://www.inkscape.org/namespaces/inkscape"
   height="1000"
   width="1000"
   id="svg2"
   version="1.1"
   inkscape:version="0.91 r13725"
   sodipodi:docname="songs.svg"
   inkscape:export-filename="D:\tmp\resources\new_icons_src\songs.png"
   inkscape:export-xdpi="2.6990588"
   inkscape:export-ydpi="2.6990588">
  <metadata
     id="metadata10">
    <rdf:RDF>
      <cc:Work
         rdf:about="">
        <dc:format>image/svg+xml</dc:format>
        <dc:type
           rdf:resource="http://purl.org/dc/dcmitype/StillImage" />
      </cc:Work>
    </rdf:RDF>
  </metadata>
  <defs
     id="defs8" />
  <sodipodi:namedview
     pagecolor="#ffffff"
     bordercolor="#666666"
     borderopacity="1"
     objecttolerance="10"
     gridtolerance="10"
     guidetolerance="10"
     inkscape:pageopacity="0"
     inkscape:pageshadow="2"
     inkscape:window-width="1920"
     inkscape:window-height="1001"
     id="namedview6"
     showgrid="false"
     inkscape:zoom="0.472"
     inkscape:cx="536.08818"
     inkscape:cy="527.31247"
     inkscape:window-x="-9"
     inkscape:window-y="-9"
     inkscape:window-maximized="1"
     inkscape:current-layer="svg2" />
  <path
     d="M9.453 894.538q-21.483 -56.637 5.859 -117.18 37.107 -76.167 130.851 -107.415 39.06 -13.671 78.12 -13.671 68.355 0 119.133 37.107l0 -537.075q0 -23.436 14.648 -40.037t36.13 -22.46l531.216 -93.744l11.718 0q23.436 0 41.013 15.624 21.483 17.577 21.483 46.872l0 656.208q0 35.154 -15.624 66.402 -37.107 76.167 -130.851 107.415 -39.06 13.671 -78.12 13.671 -60.543 0 -107.415 -28.319t-64.449 -77.144q-21.483 -56.637 5.859 -117.18 37.107 -76.167 130.851 -107.415 39.06 -13.671 78.12 -13.671 68.355 0 119.133 37.107l0 -378.882l-519.498 91.791l-11.718 0l0 499.968q0 35.154 -15.624 66.402 -37.107 76.167 -130.851 107.415 -39.06 13.671 -78.12 13.671 -60.543 0 -107.415 -28.319t-64.449 -77.144zm57.614 -21.483q14.648 41.013 65.425 57.614t107.415 -2.929 84.956 -61.52 12.694 -83.002 -65.425 -57.614 -106.439 2.929 -84.956 61.52 -13.671 83.002zm336.892 -623.007l531.216 -93.744l0 -93.744l-531.216 93.744l0 93.744zm255.843 529.263q15.624 41.013 66.402 57.614t106.439 -2.929 84.956 -61.52 13.671 -83.002 -66.402 -57.614 -106.439 2.929 -84.956 61.52 -13.671 83.002z"
     fill="#000000"
     id="path4"
     style="fill:#feff7f;fill-opacity:1" />
</svg>
